<svg xmlns="http://www.w3.org/2000/svg" viewBox="0 0 221.59 82.6"><path d="M208.1 28.22c1.15-3.64 6.22-6.69 9.36-6.69 2.41 0 4.13 1.3 4.13 3.76v3.83c0 2.47-2.2 3.77-4.67 3.77-5.6 0-8.34 4.79-8.34 10.54v9.92c0 2.47-1.3 3.76-3.76 3.76h-4.32c-2.46 0-3.76-1.29-3.76-3.76V25.63c0-2.46 1.3-3.76 3.76-3.76h3.83c2.47 0 3.77 1.3 3.77 3.76zm-77.54 0c1.15-3.64 6.22-6.69 9.37-6.69 2.4 0 4.12 1.3 4.12 3.76v3.83c0 2.47-2.2 3.77-4.67 3.77-5.61 0-8.34 4.79-8.34 10.54v9.92c0 2.47-1.3 3.76-3.76 3.76H123c-2.47 0-3.76-1.29-3.76-3.76V25.63c0-2.46 1.29-3.76 3.76-3.76h3.83c2.47 0 3.77 1.3 3.77 3.76z" fill="#fff"/><path d="M187 18a9 9 0 110-18 8.87 8.87 0 019 9 9 9 0 01-9 9" fill="#f3a136"/><path d="M33.25 18a9 9 0 01-9-9 9 9 0 019-9 8.86 8.86 0 019 9 9 9 0 01-9 9m124.64 31.73a7.44 7.44 0 007.13-7v-.93h-1.3c-4.29 0-9.81 1.08-9.81 4.72 0 1.85 1.38 3.24 4 3.24m5.93-14.37h1.06v-.6c0-2.91-2.48-3.87-5.18-3.87a17 17 0 00-6.61 1.56c-2.35.95-4.12.54-5.26-1.62l-.85-1.7c-1.07-2.1-.63-3.93 1.56-5a30.44 30.44 0 0112.29-2.7c10.09 0 16.33 5.35 16.33 14.22v17.71c0 2.43-1.34 3.72-3.9 3.72h-3.41c-2.55 0-3.91-1.22-3.91-3.79v-.27a6.78 6.78 0 01.07-.87l-.14.19a13.14 13.14 0 01-10.79 5.55c-7 0-11.94-4.6-11.94-10.63 0-9.36 11.66-11.93 20.68-11.93M5.38 31.05H4.22C1.49 31.05 0 29.56 0 26.76v-2c0-2.76 1.49-4.24 4.29-4.24h1.48v-7.27c0-2.8 1.48-4.27 4.3-4.27h4.52c2.81 0 4.29 1.47 4.29 4.27v7.27H23c2.8 0 4.29 1.48 4.29 4.29v2c0 2.8-1.49 4.29-4.21 4.29h-4.2v12.12c0 3.43 2.25 4.75 4.69 5.05 3.11.4 4.27 1.35 4.27 4.3v3.52c0 3.18-1.95 4.28-5.54 4.28-5.92 0-16.92-2.71-16.92-14.66z" fill="#fff"/><path d="M27.33 25.63c0-2.46 1.3-3.76 3.76-3.76h4.31c2.45 0 3.76 1.3 3.76 3.76v27.72c0 2.47-1.31 3.76-3.76 3.76h-4.31c-2.46 0-3.76-1.29-3.76-3.76z" fill="#fff"/><rect x="181.03" y="21.87" width="11.83" height="35.25" rx="3.76" fill="#fff"/><path d="M105.46 35.25c0-3-1.95-5.53-5.11-5.53-3.58 0-5.3 2.58-5.95 5.53zm-5.11-13.95c10.48 0 16.3 7.38 16.3 16.82a4.05 4.05 0 01-4 3.91H94.13c.89 4.31 4.44 6.29 8.21 6.29a14.65 14.65 0 006.43-1.64c2.26-1 3.91-.76 5.06 1.44l1 1.78c1.1 2.12.74 4-1.31 5.13a24.52 24.52 0 01-12.1 3.15C88.79 58.18 82 49.08 82 39.7c0-10.34 7-18.4 18.34-18.4M60.61 48.39c-4.13 0-7-3.42-7-8.69s3.32-8.43 7-8.43c4.64 0 7.17 4.19 7.17 8.43 0 6.08-3.62 8.69-7.17 8.69m6.92 5.47v5.65a5.06 5.06 0 013.74-1.34h4.33a4.94 4.94 0 013.67 1.36V25.22c0-2.46-1.3-3.77-3.76-3.77h-4.3c-2.23 0-3.5 1.07-3.73 3.08v.24h-.13s-2.12-3.47-9.24-3.47c-9.37 0-16.08 7.24-16.08 18.4 0 10.95 6.29 18.48 15.89 18.48a12 12 0 009.59-4.32" fill="#fff"/><path d="M79.27 66.5v-1.24c0-2.61-1.33-3.84-3.69-3.84h-4.24a3.63 3.63 0 00-2.72 1.06 3.87 3.87 0 00-.86 2.66 6.72 6.72 0 01-1.91 4.8 6.73 6.73 0 01-4.52 1.45 6.73 6.73 0 01-4.57-1.46 5.7 5.7 0 01-1.92-4.75 3.86 3.86 0 00-.84-2.63 3.66 3.66 0 00-2.75-1.13H47c-2.46 0-3.71 1.31-3.7 3.85v1.44a9.22 9.22 0 00.07 1.78C44 76 52.34 82.59 61.3 82.6c9 0 17.4-6.61 18-14.11v-2" fill="#f3a136"/><path d="M93.33 73.66a.59.59 0 00-.51.17.68.68 0 00-.15.47V79a.87.87 0 00.15.53.72.72 0 00.51.18h11.29a.92.92 0 00.5-.18.69.69 0 00.2-.53v-4.7a.56.56 0 00-.2-.47.78.78 0 00-.5-.17zm-1.06 7.94a1.62 1.62 0 01-1.09-.42 1.39 1.39 0 01-.46-1.08v-6.75a1.48 1.48 0 01.46-1.13 1.3 1.3 0 011.09-.44h13.5a1.27 1.27 0 011.1.48 1.86 1.86 0 01.42 1.09v6.75a1.46 1.46 0 01-.42 1 1.54 1.54 0 01-1.1.46zM89.9 70a1.16 1.16 0 01-.82-.2 1.11 1.11 0 01-.29-.68 1.18 1.18 0 01.2-.76 1.37 1.37 0 01.82-.35h.91a44.37 44.37 0 004.09-5.69 1.15 1.15 0 01.6-.51 1.05 1.05 0 01.75.09 1 1 0 01.44.53 1 1 0 01-.13.82 47.05 47.05 0 01-3.29 4.63l11.3-.58L102 65a.92.92 0 01-.42-.68.88.88 0 01.19-.71 1 1 0 01.62-.4 1.23 1.23 0 01.82.29c1.66 1.5 2.73 2.54 3.17 3 2 1.95 3 3.14 3 3.63a1.27 1.27 0 01-.31.64 1.14 1.14 0 01-.73.27 1.28 1.28 0 01-.73-.45l-1.53-1.7zm40.74 0a.7.7 0 01.42-.33.68.68 0 01.49 0 .83.83 0 01.36.49 6.24 6.24 0 01.28 2.74.65.65 0 01-.46.22.71.71 0 01-.49-.11l-.06-.06-.56-2.42a.79.79 0 010-.57m-3.6-.2a.79.79 0 01.51-.18.67.67 0 01.44.22.77.77 0 01.15.56c-.17 1.61-.44 2.56-.73 2.76a.73.73 0 01-.53.07 1.1 1.1 0 01-.42-.29 16.05 16.05 0 01.34-2.57.65.65 0 01.24-.53m.11-.64a.77.77 0 01-.58-.18.69.69 0 01-.26-.51.75.75 0 01.15-.51.92.92 0 01.58-.26h.26l1-1.09-1.28-1.25a.77.77 0 01-.35-.51.62.62 0 01.09-.53.7.7 0 01.44-.36.75.75 0 01.48.09l.84-1.75a.74.74 0 01.47-.39.82.82 0 01.57.06.83.83 0 01.34.42 6 6 0 01-1.2 2.53l.55.57.89-1.59a.82.82 0 01.42-.42.71.71 0 01.57 0 .81.81 0 01.38.4c.18.57-.53 1.81-2.12 3.69l1-.06a1.2 1.2 0 01-.2-.82.77.77 0 01.31-.38.66.66 0 01.51-.06.8.8 0 01.46.39 7.41 7.41 0 01.82 2.63.74.74 0 01-.91.29 1.21 1.21 0 01-.42-.67l-.84.07v3.78a.7.7 0 01-.22.56.65.65 0 01-.51.22.81.81 0 01-.53-.2.85.85 0 01-.2-.58V69.1zm-3.89 1.06l-.16.07-.06.13v1.18l.06.15.16.07h1.32l.16-.07.06-.15v-1.15l-.06-.13-.16-.07zm2.12-2.83a.62.62 0 01.4.13.54.54 0 01.13.4.62.62 0 01-.13.4.54.54 0 01-.4.15h-2.85a.53.53 0 01-.42-.13.63.63 0 01-.09-.34.52.52 0 01.14-.38.54.54 0 01.42-.15zm.09-1.82a.54.54 0 01.37.13.49.49 0 01.16.4.54.54 0 01-.16.4.44.44 0 01-.37.16h-2.94a.54.54 0 01-.42-.14.63.63 0 01-.14-.42.65.65 0 01.14-.4.68.68 0 01.42-.13zm-2.83 7.33a.68.68 0 01-.56-.29.94.94 0 01-.22-.64v-2.05a.75.75 0 01.22-.56.68.68 0 01.56-.22h2.41a.88.88 0 01.68.25.74.74 0 01.25.53V72a1 1 0 01-.29.64 1 1 0 01-.64.29zm2.92-10.8a.54.54 0 01.37.13.55.55 0 01.16.42.46.46 0 01-.16.38.5.5 0 01-.37.17h-3.3a.54.54 0 01-.4-.15.5.5 0 01-.15-.4.53.53 0 01.15-.4.54.54 0 01.4-.15zm.42 1.81a.71.71 0 01.4.13.57.57 0 01.15.42.46.46 0 01-.15.38.59.59 0 01-.4.18h-4.32a.57.57 0 01-.42-.16.52.52 0 01-.13-.4.59.59 0 01.13-.39.57.57 0 01.42-.16zm-6.15 6.4a.64.64 0 01.39-.36.7.7 0 01.51 0 .88.88 0 01.38.44 3.61 3.61 0 01.29 2.23.72.72 0 01-.38.38.68.68 0 01-.51-.11 5.2 5.2 0 01-.45-1.35l-.17-.58a.79.79 0 010-.57m9.24 3.34a1.28 1.28 0 011.24 1.22v.93a1.3 1.3 0 01-.42 1 1.38 1.38 0 01-1.06.47H119a.6.6 0 00-.47.22.63.63 0 00-.13.46v-.18.15l.27.13h10.95a1.17 1.17 0 01.91.47.85.85 0 01.24.77 3.58 3.58 0 01-.71 2.21 2.66 2.66 0 01-1.68.87h-1.81c-3.72-.11-5.75-.38-6.06-.8a1 1 0 01-.09-.57.73.73 0 011-.58c4.1.67 6.62.67 7.53 0a1.52 1.52 0 00.24-.73l-.09-.24-.26-.07H118a1.36 1.36 0 01-.93-.51 1.24 1.24 0 01-.24-1l.2-.82a1.4 1.4 0 01.64-1 1.55 1.55 0 011-.23h9.67l.31-.13.13-.29v-.13l-.11-.24-.2-.09H118a.63.63 0 01-.56-.2.66.66 0 01-.2-.49.78.78 0 01.2-.46.77.77 0 01.56-.2zm-12.63-4.32a.77.77 0 01-.6-.17.67.67 0 01-.24-.51.83.83 0 01.13-.51 1 1 0 01.6-.27h.51l.86-1.08a9.5 9.5 0 00-1.52-1.37.84.84 0 01-.4-.49.71.71 0 01.09-.55.93.93 0 01.44-.34.68.68 0 01.49.07l.92-2a.87.87 0 01.47-.4.71.71 0 01.55 0 1 1 0 01.36.4c.08.31-.31 1.26-1.22 2.81l.6.62.68-1.41a.73.73 0 01.4-.45.82.82 0 01.58 0 .8.8 0 01.39.38c.2.62-.39 1.81-1.81 3.63l1.06-.07a1 1 0 01-.15-.66.61.61 0 01.33-.4.56.56 0 01.51-.07.69.69 0 01.46.36c.67 1.19.93 2 .76 2.43a.74.74 0 01-.45.33.57.57 0 01-.51 0 .84.84 0 01-.37-.46v-.13l-1 .07v3.62a.68.68 0 01-.2.56.67.67 0 01-.53.22.76.76 0 01-.51-.2.85.85 0 01-.2-.58v-3.51zm0 .67a.62.62 0 01.49-.11.72.72 0 01.44.29.68.68 0 01.09.55c-.4 1.5-.73 2.37-1 2.45a.73.73 0 01-.53 0 .6.6 0 01-.35-.33.78.78 0 010-.6l.51-1.79a.78.78 0 01.31-.49M112 63.57a.94.94 0 01.14-.65.78.78 0 01.53-.42.87.87 0 01.7.16c1.46.88 2.28 1.61 2.3 2.17a.93.93 0 01-.24.66.78.78 0 01-.6.24 1 1 0 01-.68-.3 12.31 12.31 0 00-1.66-1.31 1 1 0 01-.49-.55m-.33 4.93a.78.78 0 01.18-.64.67.67 0 01.53-.36 1.1 1.1 0 01.71.2c1.5 1.07 2.25 1.91 2.25 2.48a1 1 0 01-.31.62.71.71 0 01-.62.22.86.86 0 01-.64-.37A10.48 10.48 0 00112 69.1a1.09 1.09 0 01-.4-.6m2.4 4.34a.83.83 0 01.64-.22.89.89 0 01.79 1 21.31 21.31 0 01-.73 4.52c-.68 2.39-1.32 3.65-1.92 3.83a1 1 0 01-.69-.12.84.84 0 01-.26-1.3 16 16 0 001.9-7 .88.88 0 01.27-.66m32.83 2.96a1 1 0 01.67-.29 1 1 0 01.68.27 1 1 0 01.27.77v2.5a1.08 1.08 0 00.31.75 1.19 1.19 0 00.75.31h1.62c1 0 1.57-.31 1.57-.86a2 2 0 01.44-1.48.86.86 0 01.69-.18 1 1 0 01.66.33 1.14 1.14 0 01.18.8l-.18 1.13a2.75 2.75 0 01-1.33 1.88 8.6 8.6 0 01-2.85.29 5.59 5.59 0 01-2.75-.49 2.06 2.06 0 01-1-1.84V76.6a1 1 0 01.26-.75m-5.26 0a.89.89 0 01.66-.29.9.9 0 01.67.27 1 1 0 01.28.77v.77a7.35 7.35 0 01-.28 2.13 4.39 4.39 0 01-2.37 2.39c-1.51.64-2.53.8-3 .46a.89.89 0 01-.42-.66 1 1 0 01.92-1.17 5.24 5.24 0 002.64-1 3.43 3.43 0 00.66-2.11v-.81a1 1 0 01.27-.75m2.48-3.68a1 1 0 00.31.73 1.1 1.1 0 00.73.29h4.29c.75 0 1.11-.31 1.11-.75a1.68 1.68 0 01.33-1.22.77.77 0 01.66-.2 1.21 1.21 0 01.6.29 1 1 0 01.2.8l-.13 1a1.92 1.92 0 01-1.17 1.65c-.7.27-2.9.36-6.57.23a2.64 2.64 0 01-1.26-.43 2.14 2.14 0 01-1-1.79v-1.28h-3a1 1 0 01-.69-.25 1 1 0 01-.26-.7 1 1 0 01.26-.67.94.94 0 01.69-.26h3V68h-3.85a.58.58 0 00-.66.67v4.36a26.47 26.47 0 01-.8 6.4c-.55 1.72-1.1 2.7-1.66 2.83a1.07 1.07 0 01-.77-.16 1 1 0 01-.24-1.55 14.15 14.15 0 001.59-6.83v-5.86a1.72 1.72 0 01.49-1.2 1.51 1.51 0 011.19-.5h4.71v-3.57a1 1 0 01.27-.75.92.92 0 01.66-.29.9.9 0 01.67.27 1 1 0 01.29.77V63H152a1 1 0 01.69.22 1.1 1.1 0 010 1.37.85.85 0 01-.69.27h-7.94v1.33h8.49a1.75 1.75 0 011.62.84c.44.79.29 2-.44 3.67a1.16 1.16 0 01-.6.6 1.34 1.34 0 01-.71 0 1 1 0 01-.42-1.35c.4-.77.53-1.3.4-1.5a.53.53 0 00-.49-.34h-7.85v1.58h4.84a.93.93 0 01.67.24 1 1 0 01.26.69 1 1 0 01-.26.68.87.87 0 01-.67.27h-4.84zm26.38-9.58a1 1 0 01.24-.68.89.89 0 01.69-.27.85.85 0 01.64.27.82.82 0 01.31.68v1.15h3.54a1 1 0 01.66.22 1 1 0 010 1.38.78.78 0 01-.66.28h-8.74a.94.94 0 01-.69-.26 1 1 0 01-.26-.69 1 1 0 01.26-.68 1 1 0 01.69-.25h3.32zm-.55 6.84v4.25a14.56 14.56 0 01-2.24 8.12 1.1 1.1 0 01-.73.4.89.89 0 01-.77-.35 1 1 0 01.08-1.49A13.48 13.48 0 00168 73v-4.41a1.79 1.79 0 01.42-1.24 1.58 1.58 0 011.35-.51h2.81a1.71 1.71 0 011.29.51 1.88 1.88 0 01.53 1.31v10.86a.79.79 0 00.15.47.63.63 0 00.45.17l.37-.22a.75.75 0 00.2-.53v-2.57a1 1 0 01.27-.73.87.87 0 01.64-.22.84.84 0 01.62.22 1.06 1.06 0 01.27.73v2.81a2.77 2.77 0 01-.29 1.29A2.25 2.25 0 01175 82h-.58a2.06 2.06 0 01-1.68-1 1.81 1.81 0 01-.24-1V69.43a1.11 1.11 0 00-.2-.51.67.67 0 00-.55-.2h-1.15a.59.59 0 00-.7.71m-9.39-2.88a.82.82 0 01.42-.42 1.09 1.09 0 01.62 0 1 1 0 01.45.53c.7 2 .92 3.23.66 3.68a.8.8 0 01-.51.31 1 1 0 01-.62-.14 1 1 0 01-.31-.59l-.38-1.53a7.89 7.89 0 01-.33-1.84m3.41 4.61v-5.34a.59.59 0 00-.18-.35.49.49 0 00-.37-.16h-3.17a.49.49 0 00-.4.16.47.47 0 00-.13.4v5.64zm-1.37 7.68a1 1 0 01-.24.68 1.16 1.16 0 01-.62.25 1.07 1.07 0 01-.6-.23 1 1 0 01-.25-.7v-5.63l-1.17.11v.6a28 28 0 01-.37 4.3 13.82 13.82 0 01-.87 3.32 1.07 1.07 0 01-.59.64 1.34 1.34 0 01-.74 0 1 1 0 01-.5-.56 1 1 0 010-.82 18.78 18.78 0 001.2-7.28h-.23a.86.86 0 01-1-.77.91.91 0 01.18-.69 1 1 0 01.71-.35h.4v-6.66a1.32 1.32 0 01.46-1.09 1.61 1.61 0 011.06-.44h1.09l.53-1.3a1.25 1.25 0 01.46-.67 1 1 0 01.73-.06.84.84 0 01.58.46 2.46 2.46 0 01-.24 1.57h1.63a1.68 1.68 0 011.07.44 1.55 1.55 0 01.48 1.11v5.86h.4a1.08 1.08 0 01.73.2.83.83 0 01.29.62.92.92 0 01-.16.65 1.09 1.09 0 01-.73.33l-.53.06v7.35a2.7 2.7 0 01-.48 1.53 1.24 1.24 0 01-1.18.49 4.32 4.32 0 01-2.3-.47 1 1 0 01-.18-.71c.05-.66.45-1 1.16-.86a2.5 2.5 0 001 .09.63.63 0 00.24-.53V73l-1.37.15z" fill="#fff"/></svg>