<svg xmlns="http://www.w3.org/2000/svg" viewBox="0 0 182.89 182.89"><defs><linearGradient id="b" x1="91.44" y1="-1.44" x2="91.44" y2="181.45" gradientUnits="userSpaceOnUse"><stop offset="0" stop-color="#85c85c"/><stop offset=".23" stop-color="#88ca5d"/><stop offset=".67" stop-color="#58b252"/><stop offset="1" stop-color="#39a34a"/></linearGradient><linearGradient id="c" x1="82.8" y1="175.75" x2="100.38" y2="4.29" gradientUnits="userSpaceOnUse"><stop offset="0" stop-color="#b9e268"/><stop offset="1" stop-color="#008045"/></linearGradient><linearGradient id="e" x1="49.74" y1="159.38" x2="111.76" y2="-3.15" gradientUnits="userSpaceOnUse"><stop offset="0" stop-color="#fff"/><stop offset=".2" stop-color="#ddefe0"/><stop offset=".63" stop-color="#87c791"/><stop offset="1" stop-color="#39a34a"/></linearGradient><mask id="d" x="-18.39" y="-10.57" width="214" height="202.73" maskUnits="userSpaceOnUse"><path d="M97.1-10.53c5.19.69 14.32 15.92 19.09 17.49 4.92 1.62 17.67-8.77 22.05-6.33s6.33 19.82 10.13 23 20.08-1.42 23.17 2.46-2.53 20.35-.29 24.73 19.2 6.27 20.5 11-10.82 17.53-10.54 22.45c.28 4.76 15.1 13 14.37 18s-17.2 12-18.87 16.54 8.37 18 5.78 22.09-20.64 4.48-24.06 8.08.13 19.77-4 22.69-20.59-3.64-25.24-1.52S121 188.48 116 189.71s-17.19-11-22.4-10.71c-5 .26-15.35 13.83-20.55 13.14s-11.12-16.43-15.89-18-20.24 6.86-24.62 4.46-3.19-19-7-22.27-21.62-1.27-24.71-5.14 5.06-18.45 2.83-22.84-19.46-9.31-20.76-14 12.31-14.82 12-19.74c-.27-4.76-14-15.92-13.28-20.82 1-6.59 18.29-12.2 20.91-18 2.72-6-3.79-22.75.4-27.79s23-3.16 28.47-7S38.51-.24 44.89-2.68s22.79 7.22 29.69 6.43C81.24 3 90.15-11.46 97.1-10.53z" fill="url(#a)"/></mask><mask id="f" x="11.83" y="1.91" width="159.22" height="169.14" maskUnits="userSpaceOnUse"><path filter="url(#g)" d="M55.03 1.91h67.51v69.75H55.03z"/></mask><radialGradient id="a" cx="-3128.73" cy="3285.33" r="138.61" gradientTransform="matrix(1.43 .17 -.18 1.35 5056.83 -3828.13)" gradientUnits="userSpaceOnUse"><stop offset="0" stop-color="#fff"/><stop offset=".16" stop-color="#ddd"/><stop offset=".5" stop-color="#868686"/><stop offset="1"/></radialGradient><filter id="g" x="11.83" y="1.91" width="159.22" height="169.14" filterUnits="userSpaceOnUse" color-interpolation-filters="sRGB"><feFlood flood-color="#fff" result="bg"/><feBlend in="SourceGraphic" in2="bg"/></filter></defs><g style="isolation:isolate"><circle cx="91.44" cy="91.44" r="91.44" fill="url(#b)"/><circle cx="91.44" cy="91.44" r="87.93" fill="url(#c)"/><g mask="url(#d)"><path d="M81.09 86.83c42.81-35.3 79-36.06 88.39-35.92A87.93 87.93 0 1027.84 152.15a246.85 246.85 0 0153.25-65.32z" opacity=".3" fill="url(#e)"/></g><path d="M83.69 25.48l-9.06-12.6 2.93-1.21a5.05 5.05 0 014.61.4l11.88 7.48a3.6 3.6 0 003.31.28l10.55-4.35a9.87 9.87 0 015.56 1.09c3.11 1.53-1.75 4.74-1.75 4.74l-16 6.59-8.62 3.56-7.69 3.17a6 6 0 01-2.62.44 36.75 36.75 0 01-5.79-.65 1.86 1.86 0 01-1.36-1.65 1.92 1.92 0 01.65-1.77L64 24.11l4.73-1.95 9 5.18a1.37 1.37 0 001.23.08z" fill="#fff"/><g mask="url(#f)"><ellipse cx="91.44" cy="93.71" rx="78.22" ry="75.95" style="mix-blend-mode:soft-light" fill="none" stroke="#fff" stroke-miterlimit="10" stroke-width="2.772"/></g></g></svg>