<svg xmlns="http://www.w3.org/2000/svg" viewBox="0 0 425.65 162.96"><path fill="#040000" d="M-.63 0v20.15l15.09 7.51v2.65L-.63 39.44v17.4l15.09 7.49v2.66L-.63 76.11v17.4l15.09 7.5v2.65l-15.09 9.13v50.17h426.28V0H-.63z"/><path fill="gray" d="M139.94 75.94h270.78v2.75H139.94z"/><path fill="#fff" d="M203.12 127.12l.16.75-.84 1.16.3.18 1.82-.47.3-.75-.25-.22-.95-.79-.54.14zm-8.9-26.62l.19-.79-.6-.57-1.56.87-1.05-.37-.61-1.78-.76.08.08.86-.2.2-.52-.8.15-.72-.34-1.28-1.21-1.07-.87.04-.69-1.05-.64.42.91.97v.38l2.5 3.75-.12 1.28-.38 1.31-1.02.8.04.57 1.51.71.38.68-.87 1.71.19.41.61-.05.26.35.75-.41 1.19-1.93.68-1.54-.24-.34.34-.8.73-.04.07.42.57-.3-.08-.84.45-.26.16-.87zm-15.62-4.19v6.08l1.94 1.89h3.18l1.88-1.89v-6.08l-1.88-1.89h-3.18zm2.91 1.51c0-.49.19-.79.56-.79s.57.3.57.79v3.06c0 .49-.19.79-.57.79s-.56-.3-.56-.79zm1.71 18.62l.52-.16v-.52l.6-1.45.53-1.62.76-.56.8.15.33-.11.12-.38-.45-.57.11-.3.76-.95.11-.64.41-.22.54-1.13-.12-.3.08-.42-.08-.16.08-.44-.57-.26-.91.64-.04-.08.08-.46-.26-.15-.23.09-.04-.12.12-.27.1-.19-.1-.22-1.02.8-.46 1.61-.65.37-.34 1.55-2.72 2.64-.91.28-1.25 1.77-.83 1.92.49.64.95-.22.23.34h.53l.04.34.94.04.91-.5.84-.78zm13.07-.88v-6.07l-1.88-1.89h-3.18l-1.94 1.89v6.07l1.94 1.89h3.18zm-2.91-1.51c0 .49-.19.79-.57.79s-.56-.3-.56-.79V111c0-.48.18-.79.56-.79s.57.31.57.79zM180 117.82l-.4.12.12.51-.6.83.22.12 1.28-.33.2-.53-.16-.15-.66-.57zm-36.56-.36h5.14V94.43h-2.69l-1.74 1.73h-2.94v4.53h2.23v16.77zm14.21-5.01a.83.83 0 01-.75.9h-.42a.83.83 0 01-.81-.84V99.45a.83.83 0 01.76-.9h.45a.84.84 0 01.81.86zm-3.88-18l-3.25 3.26v16.56l3.25 3.25h5.74l3.25-3.25V97.68l-3.25-3.26zm16.12 4.99a.81.81 0 01.73-.89h.43a.82.82 0 01.81.84v13.06a.85.85 0 01-.77.9h-.41a.83.83 0 01-.8-.85zm3.88 18l3.25-3.25V97.68l-3.25-3.25H168l-3.25 3.25v16.56l3.25 3.25zm35.41-13.08a.76.76 0 01-.69.83.4.4 0 01-.11 0h-1v-6.65h1a.76.76 0 01.8.74.33.33 0 010 .1zm-7-9.94v23h5.14v-8.15h3.76l3.22-3.21v-8.42l-3.22-3.22zm13.74 0v19.82l3.24 3.25h5.76l3.24-3.25V94.42H223v18a.83.83 0 01-.74.9h-.4a.82.82 0 01-.81-.84V94.42zm21.2 8.99a.77.77 0 01-.72.83h-1.14v-5.7h1.05a.77.77 0 01.81.74v4.13zm5.12-5.82L239 94.37h-8.91v23h5.14v-8.83h1a.77.77 0 01.81.74v5.91l.27 2.22h5.13l-.27-2.52v-6.31l-2.17-2.22 2.26-2.27zm1.95 19.87h9.7v-4.41h-4.56v-5.02h4.18v-4.43h-4.18v-4.76h4.56v-4.41h-9.7v23.03zm23.02-13.66h-.24l-2.16-9.36h-4.82v23.1h4.79v-9.96h.22l2.61 9.96h4.42v-23.1h-4.82v9.36zm6.79 13.74h9.72v-4.43h-4.57v-5.05h4.19v-4.42h-4.19v-4.77h4.57v-4.43H274v23.1zm34.93-18.67h4.88l-4.85 14.62v4.05h10.48v-4.43h-4.76l4.76-14.5v-4.16h-10.51v4.42zm12.14 18.67h9.72v-4.43h-4.57v-5.05h4.19v-4.42h-4.19v-4.77h4.57v-4.43h-9.72v23.1zm26.15-23.1v23.1h9.2v-4.43h-4.13V94.44h-5.07zm32.9 9.36h-.23l-2.15-9.36h-4.83v23.1h4.79v-9.96h.22l2.62 9.96h4.4v-23.1h-4.82v9.36zm11.94-5.23h1.1a.77.77 0 01.81.72.37.37 0 010 .11v13.17a.77.77 0 01-.69.84h-1.21zm-5.14 19h8.94l3.26-3.26V97.69l-3.26-3.25h-8.94zm-89.45-12.46h-.22l-1.1-10.67h-3.71l-1.11 10.67h-.22l-1.19-10.67h-4.85l2.94 23.1h4.67l1.34-10h.22l1.29 10h4.7l2.91-23.1h-4.51l-1.16 10.67zm40.39 4.55l.9-7.53h.24l.92 7.53zm-2.2-15.22l-3.66 23.1h4.93l.46-3.72h3.05l.46 3.72h5.1l-3.68-23.1zm27.84 15.22l.9-7.53h.23l.92 7.53zm-2.19-15.22l-3.68 23.1h4.9l.44-3.72H366l.46 3.72h5.12l-3.68-23.1zM47.37 141.25l-2.58 3.54.93.55 5.56-1.44.89-2.29-.71-.69-2.89-2.41-1.71.46zm51.77-57.63l-1.39-1.79-3.18.17-1-2.18 4.59-9-2-3.59-8-3.77-.19-3 5.37-4.19 2-7 .66-6.64-13.18-19.7v-2L78 15.76l3.38-2.18L85 19.15l4.57-.2L96 24.52l1.8 6.76-.8 3.78 2.78 4.19 1-1-.4-4.58 4-.4 3.17 9.36 5.58 2 8.1-4.63 3.17 3-1 4.18-.81 4.58-2.38 1.39.4 4.38-3 1.59-.4-2.19-3.78.2-1.79 4.18 1.19 1.79-3.58 8.16-6.16 10.15zm-42.78 54.31l-5-.19-.18-1.74H48.4l-1.19-1.8-5 1.2-2.56-3.4L44 121.82l6.57-9.35 4.77-1.39 14.34-13.94 1.8-8.14 3.38-2 2.39-8.56 5.37-4.18.6 1.2-.6 1-.62 1.38.19.6 1.19-.39 1.4.79-.39 2.38.19.41 4.78-3.38 3 1.38L92 82l.4.8L92 85l.6 1.59-2.78 6-2.2 1.19-.62 3.36-4 5-.6 1.59 2.39 3-.6 2-1.79.6-4.17-.8-4 3-2.75 8.47-3.18 7.55v2.79l-2.79.81-4.38 4.17z"/><circle cx="68.64" cy="106.88" r="3.14" fill="#21872f"/></svg>