<svg xmlns="http://www.w3.org/2000/svg" viewBox="0 0 425.65 240.63"><path fill="#040000" d="M0 .24v72.98l15.46 7.69v2.72L0 92.98v17.82l15.46 7.67v2.73L0 130.54v17.82l15.46 7.69v2.71L0 168.11v75.76h425.65V.24H0z"/><path fill="gray" d="M130.53 130.51h279.16v2.84H130.53z"/><path d="M232.63 195.07a3.52 3.52 0 013.6-2.43 3.18 3.18 0 013.39 3.5v8h-2.56V197c0-1.35-.53-2.19-1.83-2.19s-2.43.68-2.43 3v6.36h-2.56v-11.26h2.07zm16.82 2.3a2.22 2.22 0 000-.44 2.18 2.18 0 00-2.22-2.34c-1.48 0-2.43 1-2.6 2.78zm.23 3.35l2.21.67c-.51 2.29-2.44 3.06-4.6 3.06-3.07 0-5.17-2.1-5.17-5.8s2-6 5.27-6c3 0 4.55 2 4.55 4.87a6.64 6.64 0 01-.19 1.51h-7.16c.09 2 1 3.44 2.8 3.44a2.13 2.13 0 002.29-1.74m14.32-2.44a23.09 23.09 0 01.76 4h.1a22.29 22.29 0 01.63-4l1.34-5.41h2.56l-3 11.26h-3l-1.39-4.87a21.8 21.8 0 01-.69-3.59h-.1a22.5 22.5 0 01-.66 3.59l-1.26 4.89h-3.05l-3.12-11.26h2.61l1.41 5.39a25.65 25.65 0 01.76 4h.1a21 21 0 01.66-4l1.43-5.37h2.44zm11.23 2.04a13 13 0 01-1.44 1.79v.09a16.9 16.9 0 012-.09h3.69v2h-8.69v-1.48l4-5.9a12.37 12.37 0 011.44-1.78v-.1a15.33 15.33 0 01-2 .1h-3.22v-2.09h8.24v1.65zm12.93-2.96a2.22 2.22 0 000-.44 2.19 2.19 0 00-2.22-2.34c-1.49 0-2.44 1-2.61 2.78zm.22 3.35l2.22.67c-.51 2.29-2.44 3.06-4.61 3.06-3.07 0-5.16-2.1-5.16-5.8s2-6 5.26-6c3 0 4.56 2 4.56 4.87a6.07 6.07 0 01-.2 1.51h-7.16c.09 2 1 3.44 2.8 3.44a2.13 2.13 0 002.29-1.74m10.62-1.47c-2.77-.07-3.92.59-3.92 1.86a1.43 1.43 0 001.61 1.45c1.07 0 2.31-.6 2.31-1.85zm2.54 2c0 .8.36 1 .82 1a1.52 1.52 0 00.66-.13v1.92a3.27 3.27 0 01-1.41.27 2.17 2.17 0 01-2.43-1.8 3.2 3.2 0 01-3.32 1.9c-2 0-3.34-1.14-3.34-3.07 0-2.48 1.95-3.9 6.48-3.67v-1.27a1.61 1.61 0 00-1.8-1.81 1.67 1.67 0 00-1.82 1.76l-2.49-.41c.17-2.39 2.24-3.34 4.48-3.34 2.42 0 4.17 1 4.17 3.55zm7.76 2.87a6 6 0 01-1.53.23 2.46 2.46 0 01-2.75-2.59v-13.88h2.55v13.27a.89.89 0 001 1 2.75 2.75 0 00.8-.12zm8.09-4.87c-2.78-.07-3.92.59-3.92 1.86a1.43 1.43 0 001.61 1.45c1.07 0 2.31-.6 2.31-1.85zm2.53 2c0 .8.37 1 .83 1a1.55 1.55 0 00.66-.13v1.92a3.36 3.36 0 01-1.42.27 2.17 2.17 0 01-2.43-1.8 3.2 3.2 0 01-3.32 1.9c-2 0-3.33-1.14-3.33-3.07 0-2.48 1.95-3.9 6.48-3.67v-1.27a1.61 1.61 0 00-1.8-1.81 1.69 1.69 0 00-1.83 1.76l-2.49-.41c.17-2.39 2.25-3.34 4.49-3.34 2.41 0 4.16 1 4.16 3.55zm6.08-6.19a3.52 3.52 0 013.6-2.43 3.18 3.18 0 013.39 3.5v8h-2.57V197c0-1.35-.53-2.19-1.82-2.19s-2.43.68-2.43 3v6.36h-2.57v-11.26h2.07zm17.5 2.2a2.51 2.51 0 00-2.58-2.69c-1.54 0-2.88 1.08-2.88 4.07 0 2.47 1.1 3.8 2.83 3.8a2.67 2.67 0 002.63-2.85zm0-9.38h2.58v16.27h-2.23l-.32-1.95c-.56 1.71-1.93 2.25-3.56 2.25-2.39 0-4.46-2-4.46-5.71s1.84-6.11 5-6.11a2.93 2.93 0 012.94 1.77zm7.11 12.81a1.8 1.8 0 11-1.78 1.8 1.78 1.78 0 011.78-1.8m13.28.56c-.39 2.27-2.24 3.19-4.53 3.19-3.05 0-5.12-2.09-5.12-5.85s2.07-6 5.24-6c2.48 0 4.09 1.31 4.26 3.58l-2.27.51c-.17-1.34-.87-2-2.06-2-1.76 0-2.71 1.59-2.71 3.9s1.07 3.87 2.8 3.87a2.1 2.1 0 002.17-1.82zm4.11-2.78c0 2.68.9 4 2.73 4s2.7-1.29 2.7-4-.92-3.79-2.7-3.79-2.73 1.24-2.73 3.79m-2.51 0c0-3.82 2.07-5.84 5.24-5.84s5.24 2 5.24 5.84-2.07 6-5.24 6-5.24-2.14-5.24-6m25.6-5.84c1.88 0 3.29 1 3.29 3.43v8.09h-2.56V197c0-1.33-.51-2.17-1.73-2.17s-2.34.84-2.34 3v6.38h-2.53V197c0-1.33-.51-2.17-1.75-2.17s-2.32.84-2.32 3v6.36h-2.56V192.9h2.07l.32 2.17a3.42 3.42 0 013.49-2.43 2.74 2.74 0 013 2.48 3.49 3.49 0 013.58-2.48" fill="#21872f"/><path fill="#fff" d="M195.66 183.28l.16.77-.86 1.2.31.18 1.87-.49.31-.77-.25-.23-.98-.81-.56.15zm-9.18-27.45l.2-.81-.62-.59-1.61.9-1.08-.39-.63-1.83-.78.08.08.89-.2.2-.54-.82.15-.74-.35-1.32-1.24-1.1-.9.04-.71-1.09-.66.44.94 1v.39l2.57 3.86-.12 1.32-.39 1.36-1.05.82.04.59 1.56.73.39.7-.9 1.76.2.43.62-.05.27.35.78-.42 1.22-1.99.7-1.59-.24-.35.35-.82.75-.04.07.43.59-.31-.08-.86.46-.27.16-.9zm-16.1-4.32v6.27l2 1.95h3.28l1.94-1.95v-6.27l-1.94-1.95h-3.28zm3 1.56c0-.51.2-.82.58-.82s.59.31.59.82v3.15c0 .51-.2.82-.59.82s-.58-.31-.58-.82zm1.76 19.19l.54-.16v-.54l.62-1.49.55-1.67.78-.58.82.16.35-.12.12-.39-.47-.59.12-.31.78-.97.12-.66.42-.23.55-1.17-.12-.31.08-.43-.08-.16.08-.46-.59-.27-.93.66-.04-.08.08-.47-.27-.16-.24.09-.04-.12.12-.28.11-.19-.11-.23-1.05.82-.47 1.67-.67.38-.35 1.6-2.8 2.72-.94.28-1.29 1.83-.86 1.98.51.66.98-.23.23.35h.55l.04.35.97.04.94-.51.86-.81zm13.48-.9v-6.26l-1.94-1.95h-3.28l-2 1.95v6.26l2 1.95h3.28zm-3-1.56c0 .51-.2.82-.59.82s-.58-.31-.58-.82v-3.15c0-.5.19-.82.58-.82s.59.32.59.82zm-13.8 3.89l-.41.12.13.53-.62.85.22.13 1.32-.34.21-.55-.16-.16-.69-.58zm-37.69-.37h5.3v-23.75h-2.77l-1.79 1.79h-3.04v4.67h2.3v17.29zm14.65-5.17a.85.85 0 01-.83.93h-.37a.85.85 0 01-.83-.93v-13.41a.86.86 0 01.83-.93h.42a.86.86 0 01.83.93zm-4-18.59l-3.35 3.36V170l3.35 3.35h5.92l3.35-3.35v-17.08l-3.35-3.36zm16.62 5.18a.84.84 0 01.82-.92h.38a.85.85 0 01.83.92v13.41a.86.86 0 01-.83.93h-.38a.85.85 0 01-.82-.93zm4 18.58l3.35-3.35v-17.05l-3.35-3.35h-5.92l-3.35 3.35V170l3.35 3.35zm36.51-13.51a.79.79 0 01-.83.86H200v-6.86h1.08a.8.8 0 01.83.87zm-7.21-10.25v23.76h5.3v-8.41h3.88l3.32-3.31v-8.72l-3.32-3.32zm14.16 0V170l3.34 3.35h5.93l3.35-3.35v-20.44h-5.3v18.59a.85.85 0 01-.83.93H215a.85.85 0 01-.83-.93v-18.59zm21.85 9.27a.8.8 0 01-.83.86h-1.08v-5.88h1.08a.8.8 0 01.83.86zm5.28-6l-3.31-3.32h-9.18v23.76h5.3v-9.11h1.07a.8.8 0 01.83.86v6l.28 2.29h5.29l-.28-2.6v-6.51l-2.33-2.33 2.33-2.34zm2.01 20.49h10v-4.55h-4.7v-5.18h4.31v-4.56h-4.31v-4.91h4.7v-4.55h-10v23.75zm23.73-14.09h-.24l-2.23-9.65h-4.97v23.82h4.94v-10.27h.23l2.69 10.27h4.55v-23.82h-4.97v9.65zm7 14.17h10.02v-4.57h-4.71v-5.2h4.32v-4.56h-4.32v-4.92h4.71v-4.57h-10.02v23.82zm36.01-19.25h5.03l-4.99 15.07v4.18h10.8v-4.57h-4.91l4.91-14.95v-4.29h-10.84v4.56zm12.52 19.25h10.02v-4.57h-4.71v-5.2h4.32v-4.56h-4.32v-4.92h4.71v-4.57h-10.02v23.82zm26.96-23.82v23.82h9.48v-4.57h-4.25v-19.25h-5.23zm33.92 9.65h-.24l-2.22-9.65h-4.98v23.82h4.94v-10.27h.23l2.7 10.27h4.54v-23.82h-4.97v9.65zm12.31-5.39h1.13a.79.79 0 01.83.86v13.58a.79.79 0 01-.83.86h-1.13zm-5.3 19.56h9.21l3.36-3.36v-17.1l-3.36-3.36h-9.21zm-92.22-12.82h-.23l-1.13-11h-3.83l-1.14 11h-.23l-1.22-11h-5l3.03 23.82h4.81l1.38-10.31h.23l1.33 10.31h4.84l3.01-23.82h-4.66l-1.19 11zm41.64 4.7l.93-7.77h.24l.95 7.77zm-2.27-15.7l-3.79 23.82h5.08l.47-3.84h3.15l.47 3.84H343l-3.79-23.82zm28.7 15.7l.93-7.77h.24l.95 7.77zm-2.26-15.7l-3.79 23.82H360l.46-3.84h3.15l.47 3.84h5.28l-3.79-23.82zM34.73 198l-2.66 3.65 1 .57 5.73-1.48.92-2.37-.73-.7-3-2.5-1.76.49zm53.35-59.39l-1.44-1.85-3.28.21-1-2.26 4.72-9.23-2-3.7-8.21-3.89-.2-3.07 5.55-4.31 2-7.17.61-7L71.26 76v-2l-4.92-5.33 3.48-2.26 3.69 5.75 4.72-.21 6.56 5.74 1.85 7-.82 3.9 2.87 4.31 1-1-.41-4.72 4.1-.41 3.28 9.64 5.74 2 8.41-4.72 3.28 3.08-1 4.31-.83 4.72-2.46 1.43.41 4.51-3.07 1.64-.41-2.26-3.9.21-1.83 4.26 1.23 1.84-3.69 8.41-6.35 10.47zM44 194.54l-5.13-.2-.2-1.85h-2.88l-1.23-1.85-5.13 1.23-2.66-3.49 4.5-10.45 6.78-9.64 4.95-1.43 14.76-14.37 1.85-8.4 3.45-2.09 2.46-8.81 5.53-4.31.62 1.23-.62 1-.61 1.44.2.62 1.23-.41 1.44.82-.41 2.45.21.42L78 133l3.07 1.42-.41 2.47.41.81-.38 2.3.62 1.64-2.87 6.15-2.26 1.21-.61 3.48-4.1 5.14-.62 1.64 2.46 3.07-.61 2-1.85.62-4.31-.82-4.09 3.07-2.88 8.82-3.28 7.79v2.87l-2.87.83-4.51 4.3z"/><circle cx="43.25" cy="175.22" r="4.13" fill="#21872f"/></svg>