<svg xmlns="http://www.w3.org/2000/svg" width="70" height="70" viewBox="0 0 70 70"><defs><style>.cls-2{fill:#ffce33;stroke:#333;stroke-width:1px;fill-rule:evenodd}</style></defs><path id="圓角矩形_6_拷貝" data-name="圓角矩形 6 拷貝" class="cls-2" d="M13.066 45.139l43.46-.037a3.527 3.527 0 110 7.019l-43.46.038a3.528 3.528 0 110-7.02z"/><path id="圓角矩形_6_拷貝_2" data-name="圓角矩形 6 拷貝 2" class="cls-2" d="M13.066 31.139l43.46-.037a3.71 3.71 0 013.885 3.507 3.71 3.71 0 01-3.88 3.512l-43.46.038a3.71 3.71 0 01-3.884-3.507 3.71 3.71 0 013.879-3.513z"/><path id="圓角矩形_6_拷貝_3" data-name="圓角矩形 6 拷貝 3" class="cls-2" d="M13.066 17.139l43.46-.037a3.71 3.71 0 013.885 3.507 3.71 3.71 0 01-3.88 3.512l-43.46.038a3.71 3.71 0 01-3.884-3.507 3.71 3.71 0 013.879-3.513z"/></svg>