<svg xmlns="http://www.w3.org/2000/svg" viewBox="0 0 157.81 79.58"><path d="M.47 31.09h12.37l-.44 3.61H8.18L5.9 51.36H2.12L4.4 34.7H0zm12.59 5.28h3.28l-.26 2Q17.55 36 19.62 36a2.26 2.26 0 011 .27l-1.34 3.34a2.12 2.12 0 00-.62-.15 2.37 2.37 0 00-1.92 1.25 13 13 0 00-1.33 5l-.73 5.63H11zm20.94 0h3.69l-2.09 15h-3.69l.22-1.61a7.77 7.77 0 01-2.25 1.56 6 6 0 01-2.34.44 5.78 5.78 0 01-4.74-2.19 7.91 7.91 0 01-1.75-5.1 8.47 8.47 0 011.12-4.22 8.26 8.26 0 013-3.13 7.7 7.7 0 014-1.13 5.38 5.38 0 012.57.64 5.31 5.31 0 011.94 1.86zm-5.52 12.1a4.59 4.59 0 002.37-.6A4.82 4.82 0 0032.5 46a5.59 5.59 0 00.69-2.64 4 4 0 00-1-2.87 3.61 3.61 0 00-2.72-1.09 4.47 4.47 0 00-3.35 1.45 5.24 5.24 0 00-1.37 3.74 3.94 3.94 0 001 2.84 3.59 3.59 0 002.68 1.04zm11.18-12.1h3.61l2.34 8.34 4.81-8.34h4l-8.7 15h-1.78zM66.57 47l3.24 1.68a7.63 7.63 0 01-2.89 2.26 9.47 9.47 0 01-4 .83 7.4 7.4 0 01-5.41-1.93 6.82 6.82 0 01-2-5.13 8.52 8.52 0 012.49-6.2A8.07 8.07 0 0164 36a7.52 7.52 0 013.76.93 6.53 6.53 0 012.59 2.69 7.86 7.86 0 011 3.83 10.07 10.07 0 01-.14 1.51h-12a3.45 3.45 0 001 2.49 3.72 3.72 0 002.68.93A5.46 5.46 0 0066.57 47zm.94-4.74a3.94 3.94 0 00-1.38-2.09 3.86 3.86 0 00-2.33-.71 4.32 4.32 0 00-2.44.73 4.58 4.58 0 00-1.66 2.07zm8.29-11.68h3.67l-2.84 20.78H73zM91.4 47l3.24 1.68a7.55 7.55 0 01-2.89 2.26 9.4 9.4 0 01-4 .83 7.38 7.38 0 01-5.4-1.93 6.82 6.82 0 01-2-5.13 8.51 8.51 0 012.47-6.18 8.08 8.08 0 016-2.53 7.5 7.5 0 013.75.93 6.49 6.49 0 012.6 2.69 8 8 0 01.95 3.83 10.07 10.07 0 01-.12 1.49H84a3.45 3.45 0 001 2.49 3.7 3.7 0 002.68.93A5.42 5.42 0 0091.4 47zm.94-4.74A3.89 3.89 0 0091 40.15a3.84 3.84 0 00-2.33-.71 4.35 4.35 0 00-2.44.73 4.63 4.63 0 00-1.65 2.07zm7.09-5.89h3.28l-.26 2c1-1.62 2.17-2.43 3.54-2.43a2.33 2.33 0 011 .27l-1.35 3.34a2.07 2.07 0 00-.61-.15 2.39 2.39 0 00-1.93 1.25 13 13 0 00-1.33 5l-.73 5.63h-3.7zM3.65 20h-.36v-.4H1.08v-.35h2.21v-.42h.36zM7 23.07h-.33v-.72H4c-.11.16-.23.33-.37.5H6v.34a6.77 6.77 0 01-4.11 1.9l-.21-.34a12.46 12.46 0 001.8-.4 4.62 4.62 0 00-.77-.8 5.86 5.86 0 01-1 .5l-.22-.31a4.14 4.14 0 002.05-1.39H1.66v.72H1.3V22H7zm-.41-1.56H1.72v-1.29h4.9zm-3.37-.35v-.6H2.08v.6zm2.26 2H3.22l-.22.18a8.67 8.67 0 01.82.86 4.59 4.59 0 001.69-1.01zm-.76-2v-.6H3.6v.6zm2.54-1.56H5.07v.4h-.35v-1.17h.35v.42h2.19zm-1 1.56v-.6H5.12v.6zm12.4.27l-.22.3a6 6 0 00-1.06-.95v1.88H17v-1.9a6.85 6.85 0 01-1.12 1.39l-.26-.27A6.7 6.7 0 0017 20.15h-1.27v-.34H17v-1h.35v1h1.13v.34h-1.1v.22a6.94 6.94 0 011.28 1.06zm-1.72 1.82a5.09 5.09 0 01-1 1.53l-.28-.24a6 6 0 00.9-1.45zm3.5.76a1.48 1.48 0 01-.12.61.59.59 0 01-.32.38 4.59 4.59 0 01-1 0 3.89 3.89 0 01-1.3-.12.42.42 0 01-.21-.41v-1.6h.36v1.53a.22.22 0 00.11.21 5.17 5.17 0 001 .05 4 4 0 00.87-.05q.11 0 .18-.3a1.92 1.92 0 00.06-.44zm-.9-.12l-.31.21a6.69 6.69 0 00-.72-1.1l.29-.22a5.06 5.06 0 01.74 1.11zm2.06-1.27h-2.71v-3.48h2.71zm-.36-2.45v-.69h-2v.69zm0 1.06v-.73h-2v.73zm0 1.06v-.73h-2v.73zm.53 2.31l-.31.21a9.74 9.74 0 00-.95-1.53l.31-.21a12.53 12.53 0 01.95 1.53zm14.72-1.93l-.1.31h-2.52a6.16 6.16 0 01-1.73-.17 2.75 2.75 0 01-.79-.41 5 5 0 01-.86.68l-.22-.28a3.34 3.34 0 001.29-1.3h-1.14v-.34a9.2 9.2 0 001-.87h-1.09V20h1.58v.33a10 10 0 01-1 .88h1v.33a2.41 2.41 0 01-.38.66 2.2 2.2 0 00.72.37 7 7 0 001.72.14zm0 1.09h-1.36v.72a.47.47 0 01-.17.41 1.07 1.07 0 01-.67.14h-.49l-.11-.35h.89c.12 0 .19-.07.19-.17v-.75h-4.46v-.35h4.46v-.24h.36v.24h1.33zm-4.73-4.21l-.26.24a7.09 7.09 0 00-1-.75l.26-.23a6.08 6.08 0 01.97.74zM33 24.49l-.23.29a6.09 6.09 0 00-1.14-.55l.22-.28a6.57 6.57 0 011.15.54zm3.47-4.81h-1.96a3 3 0 01-.21.37h1.79v2.19h-3.61v-2.19h1.44a3 3 0 00.21-.37h-2.05v-.32h4.37zm-2.84-.58l-.31.19a2.23 2.23 0 00-.48-.32l.31-.19a1.75 1.75 0 01.46.32zm2.11 1.57v-.32h-2.89v.32zm0 .64V21h-2.89v.36zm0 .63v-.36h-2.89v.36zm0-3a3.1 3.1 0 01-.52.31l-.3-.21a2.51 2.51 0 00.53-.29zM48 22l-.46.07v2.56a.43.43 0 01-.16.35 1.64 1.64 0 01-.92.1l-.13-.38h.47a1.07 1.07 0 00.33 0 .14.14 0 00.06-.12v-2.47c-.39.07-.85.12-1.38.17a6.49 6.49 0 01-.62 2.78l-.3-.21a6 6 0 00.55-2.52h-.51v-.35l.56-.05v-2.27H46a4.91 4.91 0 00.34-.81l.36.07a3.39 3.39 0 01-.29.74h1v2.05a4.62 4.62 0 00.46-.08zm-.81-.22V20h-1.4v1.9zm-.39 2l-.34.14a5.22 5.22 0 00-.35-1.12l.35-.14a5.94 5.94 0 01.3 1.06zm0-2.37l-.34.11a4.8 4.8 0 00-.29-1l.33-.14a6.15 6.15 0 01.28.97zm4.27 2.16a5.21 5.21 0 01-.07 1 .79.79 0 01-.18.43.76.76 0 01-.44.09.83.83 0 01-.5-.1.39.39 0 01-.13-.33v-3h-1v.76A5.06 5.06 0 0148 25.1l-.33-.21a4.39 4.39 0 00.69-2.57v-1.1h1.72v3.31a.11.11 0 00.06.11.85.85 0 00.29 0 .18.18 0 00.14-.06 1.32 1.32 0 00.09-.43v-.8zm0-3.15H47.8V20h1.36a4.63 4.63 0 00-.39-1.07l.35-.09a5.69 5.69 0 01.42 1.16H51zm14.57 3.99l-.25.32a5.3 5.3 0 01-2-1.7 3.05 3.05 0 01.05.62 1.59 1.59 0 01-.28 1.14 1.42 1.42 0 01-.93.24h-.35l-.13-.37a3.59 3.59 0 00.47 0 1.17 1.17 0 00.57-.09.67.67 0 00.22-.27 2.13 2.13 0 00.07-.68 3.9 3.9 0 000-.59 10.2 10.2 0 01-3.33 1.68l-.2-.32a8.79 8.79 0 003.42-1.77 2.08 2.08 0 00-.19-.54 8.76 8.76 0 01-2.86 1.33l-.21-.35a7 7 0 002.9-1.32 2.34 2.34 0 00-.28-.42 9.06 9.06 0 01-2.23.77l-.2-.34a7.32 7.32 0 002.82-1.07h-2.13v-.36h4v.36h-1.38a5.16 5.16 0 01-.63.47 4.23 4.23 0 01.62 1.2 6 6 0 001.63-1.16l.26.26a6 6 0 01-1.57 1.15 4.63 4.63 0 002.12 1.81zm-.24-3.78H65v-.89h-4.84v.89h-.38v-1.25h2.71a2.57 2.57 0 00-.21-.52l.37-.12c.06.14.14.35.25.64h2.5zm21.34 45.88A13.08 13.08 0 0090.2 64l-.58-.57A13 13 0 0186 66a9 9 0 00-1.38-2.64 10 10 0 001.4-1h3l.09-.8h-8.84l-.09.8h4.67a16.27 16.27 0 01-6.22 2.35l.43.76A20.76 20.76 0 0084 63.7a7 7 0 01.63.93 15.93 15.93 0 01-6.4 2.9l.46.78A19.16 19.16 0 0085 65.37a5.06 5.06 0 01.42 1.19 19.41 19.41 0 01-7.54 3.91l.45.71a22.91 22.91 0 007.33-3.71 9.61 9.61 0 01.1 1.3 4.49 4.49 0 01-.17 1.49 1.21 1.21 0 01-.47.6 2.69 2.69 0 01-1.26.19 8.28 8.28 0 01-1-.06l-.1.82h1.16a3.08 3.08 0 002-.54c.42-.36.62-1.2.62-2.51a7.35 7.35 0 00-.11-1.36 11.88 11.88 0 004.45 3.75l.55-.71a10.14 10.14 0 01-4.69-3.93z"/><path d="M79.55 60.17h10.74l-.23 1.97h.81l.34-2.76h-5.77l-.38-.75-.43-.85h-.53l.11.85.09.75h-5.47l-.33 2.76h.82l.23-1.97zm-8.64 8.6a.27.27 0 01-.2.12H69.6l-.11.82h.76a2.27 2.27 0 001.24-.24 1 1 0 00.33-.82v-2.4H74l.1-.77h-2.28v-.67q.6-.58 1.62-1.68l.09-.76h-4.11l-.08.76h3.07c-.44.49-.9 1-1.39 1.44v.91h-2.09l-.09.77H71v2.27a.37.37 0 01-.09.25zm-9.3-8.19h1.49l-.75-1.49h-.01.01l-.47-.92h-.57l.12.92.18 1.49z"/><path d="M64.86 70.41a5.27 5.27 0 01-2-1.27 12.6 12.6 0 00.75-2.88l.1-.77h-2.14l1.67-3.26.09-.77h-2.91l-.09.77h1.88l-1.66 3.25-.1.77h2.4a8.58 8.58 0 01-2.54 5.17l.61.48a8.7 8.7 0 001.65-2.08 5.23 5.23 0 002 1.27 8.79 8.79 0 002.37.46H74l.11-.84c-1.55.06-3.6.08-6.13.08a9.48 9.48 0 01-3.12-.38z"/><path d="M64.3 69.7h.8l.76-6.25h1.71c0 .67 0 1.65-.14 3a14.57 14.57 0 01-.22 2.14.62.62 0 01-.59.4H66l-.09.78a3 3 0 001.42-.16 1.22 1.22 0 00.54-.51 10.44 10.44 0 00.31-2.25q.16-2 .18-4.14H66l.21-1.76h2.54l.1-.8H67l-.6-1.19-.4-.91h-.53l.1.85.15 1.19h-1.58l-.1.8h1.31zm4.4-7.5h.88l.71-1.4h3.68l.1-.79H71.1l.14-1.11.1-.85h-.52l-.43.85-.57 1.12-.01.01-1.11 2.17zm-20.3-1.1l.1-.82h-1.81L46 58.9l-.43-.85H45l.1.85.17 1.38h-2.22l-.11.82h1.32l-1.32 10.76h.87l.93-7.6h2.66q-.07 4.92-.23 5.85c-.1.63-.41.94-.93.94h-1l-.1.76a6.29 6.29 0 002-.12 1.41 1.41 0 00.62-.69 12.21 12.21 0 00.29-2.56c.07-1.39.11-3 .11-5h-3.32l.29-2.35zm8.04-.22l.1-.81h-5.17l.13-1 .12-1H51l-.49 1-.71 1.4c-.61 1.2-1.32 2.48-1.32 2.48h.94l1-2zm-5.96 9.87V64a29.33 29.33 0 005.11-1.44l-.46-.73a24.33 24.33 0 01-5.45 1.5v8.64a31.23 31.23 0 003.52-1.36l-.2-.79a21.9 21.9 0 01-2.52.93z"/><path d="M54 67.49a13.36 13.36 0 002.46-2.36l-.57-.59a13.86 13.86 0 01-2.14 2.18 14.93 14.93 0 01-.44-2.38l-.79.23A11.39 11.39 0 0056.05 72l.66-.6A9.73 9.73 0 0154 67.49z"/><path d="M157.81 0l-3.73 30.39h-30.42v-.07l12.7-25A9.71 9.71 0 01145 0z" fill="#e95513"/><path fill="#1d2087" d="M148.04 79.58H98.6l24.98-49.19h.08l9.36 18.58 15.02 30.61z"/><path fill="#040000" d="M123.62 30.32l-.04.07"/><path fill="#009fe8" d="M148.04 79.58l-15.02-30.61-9.36-18.58h30.42l-6.04 49.19z"/></svg>