<svg width="158" height="80" viewBox="0 0 158 80" fill="none" xmlns="http://www.w3.org/2000/svg">
<path d="M2.48924 12.2955H16.4103L15.9211 16.3428H11.1621L8.58249 35.0673H4.31277L6.89239 16.3428H2L2.48924 12.2955Z" fill="black"/>
<path d="M16.6772 18.2108H20.3687L20.0574 20.5236C21.1693 18.7001 22.5036 17.8105 24.0602 17.8105C24.4161 17.8105 24.8163 17.8995 25.2166 18.1219L23.7044 21.9024C23.3931 21.7689 23.1707 21.7245 22.9928 21.7245C22.1922 21.7245 21.4806 22.1692 20.8135 23.1477C20.1908 24.0817 19.6571 25.9497 19.3013 28.7962L18.5007 35.1563H14.3644L16.6772 18.2108Z" fill="black"/>
<path d="M40.1607 18.2109H44.297L41.9397 35.0674H37.8479L38.1148 33.2439C37.2252 34.0889 36.3802 34.6671 35.5796 34.9784C34.779 35.2898 33.934 35.4677 32.9555 35.4677C30.7317 35.4677 28.9527 34.6671 27.6184 33.0215C26.2841 31.3759 25.6614 29.4634 25.6614 27.284C25.6614 25.6384 26.0617 24.0373 26.9067 22.5251C27.7518 21.0129 28.8637 19.8565 30.2869 19.0114C31.7102 18.1664 33.1779 17.7661 34.7346 17.7661C35.7575 17.7661 36.736 17.9885 37.6255 18.4777C38.5151 18.967 39.2267 19.6341 39.8049 20.5681L40.1607 18.2109ZM33.934 31.8206C34.957 31.8206 35.8465 31.5982 36.6026 31.1535C37.3587 30.7087 37.9813 29.9971 38.5151 29.0186C39.0488 28.0401 39.2712 27.0617 39.2712 26.0387C39.2712 24.7044 38.8709 23.637 38.1148 22.8364C37.3587 22.0358 36.3357 21.6356 35.0459 21.6356C33.5782 21.6356 32.3329 22.1693 31.2654 23.2812C30.2425 24.3486 29.7088 25.7718 29.7088 27.4619C29.7088 28.7962 30.109 29.8637 30.8651 30.6642C31.7102 31.4203 32.7331 31.8206 33.934 31.8206Z" fill="black"/>
<path d="M46.5652 18.2108H50.6126L53.2367 27.5953L58.6628 18.2108H63.1549L53.3701 35.0673H51.3687L46.5652 18.2108Z" fill="black"/>
<path d="M76.8536 30.175L80.5007 32.043C79.7001 33.1104 78.5882 33.9555 77.2539 34.5782C75.9196 35.2008 74.4074 35.5122 72.7618 35.5122C70.1822 35.5122 68.1807 34.8005 66.6685 33.3328C65.2008 31.8651 64.4447 29.9526 64.4447 27.5509C64.4447 24.7934 65.3787 22.4806 67.2467 20.6126C69.1147 18.7001 71.3386 17.7661 73.9627 17.7661C75.5638 17.7661 76.9426 18.1219 78.1879 18.7891C79.4333 19.5007 80.4117 20.4792 81.1233 21.8135C81.835 23.1477 82.1908 24.571 82.1908 26.1277C82.1908 26.6169 82.1463 27.1951 82.0574 27.8178H68.581C68.6255 28.9741 69.0258 29.9081 69.7374 30.6198C70.449 31.3314 71.472 31.6427 72.7618 31.6427C74.274 31.7317 75.6528 31.198 76.8536 30.175ZM77.9211 24.8378C77.6097 23.8149 77.076 23.0143 76.3644 22.4806C75.6528 21.9469 74.7632 21.68 73.7403 21.68C72.7173 21.68 71.8278 21.9469 70.9828 22.4806C70.1822 23.0143 69.5595 23.8149 69.1147 24.7934L77.9211 24.8378Z" fill="black"/>
<path d="M87.2166 11.7173H91.3529L88.1506 35.1118H84.0143L87.2166 11.7173Z" fill="black"/>
<path d="M104.785 30.175L108.432 32.043C107.631 33.1104 106.519 33.9555 105.185 34.5782C103.851 35.2008 102.339 35.5122 100.693 35.5122C98.1133 35.5122 96.1119 34.8005 94.5997 33.3328C93.132 31.8651 92.3759 29.9526 92.3759 27.5509C92.3759 24.7934 93.3099 22.4806 95.1779 20.6126C97.0459 18.7001 99.2697 17.7661 101.894 17.7661C103.495 17.7661 104.874 18.1219 106.119 18.7891C107.364 19.5007 108.343 20.4792 109.054 21.8135C109.766 23.1477 110.122 24.571 110.122 26.1277C110.122 26.6169 110.077 27.1951 109.988 27.8178H96.5122C96.5566 28.9741 96.9569 29.9081 97.6685 30.6198C98.3802 31.3314 99.4031 31.6427 100.693 31.6427C102.205 31.7317 103.584 31.198 104.785 30.175ZM105.852 24.8378C105.541 23.8149 105.007 23.0143 104.296 22.4806C103.584 21.9469 102.694 21.68 101.671 21.68C100.648 21.68 99.7589 21.9469 98.9139 22.4806C98.1133 23.0143 97.4906 23.8149 97.0459 24.7934L105.852 24.8378Z" fill="black"/>
<path d="M113.813 18.2108H117.505L117.194 20.5236C118.306 18.7001 119.64 17.8105 121.196 17.8105C121.552 17.8105 121.953 17.8995 122.353 18.1219L120.841 21.9024C120.529 21.7689 120.307 21.7245 120.129 21.7245C119.328 21.7245 118.617 22.1692 117.95 23.1477C117.327 24.0817 116.793 25.9497 116.438 28.7962L115.637 35.1563H111.501L113.813 18.2108Z" fill="black"/>
<path d="M8.36011 43.2956C9.42754 44.4965 10.2726 45.5194 10.8953 46.3645L9.24963 47.5208H14.4089V50.056H8.9383C8.9383 51.4792 8.89382 52.858 8.84934 54.1033H14.0086C14.0086 61.353 13.9196 65.6672 13.7417 67.0015C13.6083 68.0689 13.3859 68.736 13.0301 69.0474C12.6298 69.4921 11.8293 69.7145 10.7173 69.7145C10.0947 69.7145 9.38306 69.67 8.58249 69.5811L8.09325 66.8236C8.9383 66.957 9.82782 67.0015 10.7173 67.0015C11.1176 67.0015 11.3845 66.6457 11.429 65.8896C11.5179 64.9556 11.5624 61.8867 11.5624 56.683H8.62696C8.49353 58.2396 8.31563 59.6184 8.13772 60.8637C7.64848 63.8881 6.75896 67.0015 5.42467 70.1148L3.24533 68.2468C4.40171 65.7116 5.24676 62.9986 5.69153 60.1076C6.09181 57.8393 6.3142 54.5036 6.3142 50.0115H3.77905V47.4764H8.36011C7.82639 46.5868 7.20372 45.5639 6.40315 44.4965L8.36011 43.2956ZM18.1004 43.429L20.68 44.4075C20.3687 45.2526 20.1018 46.0086 19.835 46.6758H29.6198V49.0775H18.812C18.6786 49.2999 18.5897 49.5223 18.5007 49.6557C17.878 50.8566 16.8106 52.2798 15.2539 53.9254L13.0746 51.9685C14.4089 50.6342 15.4318 49.3444 16.2324 48.099C16.944 46.8092 17.6112 45.2525 18.1004 43.429ZM26.5064 50.1894L28.2855 52.6356C26.7733 53.1249 25.2166 53.5696 23.571 53.9699C23.8379 55.3042 24.1492 56.5495 24.505 57.7059C26.0172 57.0388 27.396 56.1048 28.5968 54.9039L30.2424 56.7719C28.5968 58.2841 26.9957 59.4405 25.3501 60.2411C25.6169 60.9082 25.8393 61.4864 26.1061 62.0201C27.1736 64.2884 28.5968 66.2009 30.4648 67.7131L28.6858 70.2927C26.5509 68.3358 24.9498 66.2009 23.9268 63.8436C22.726 61.2195 21.7475 58.1062 20.9914 54.4591C20.2798 54.5926 19.6126 54.726 18.9455 54.8594V66.1119C20.5466 65.6672 22.0588 65.2224 23.482 64.7332V67.4907C21.0803 68.3802 18.2783 69.2253 15.165 69.9369L14.3199 67.1794C14.9871 67.0459 15.6542 66.868 16.3214 66.7346V52.858C20.0574 52.2798 23.4376 51.3458 26.5064 50.1894Z" fill="black"/>
<path d="M40.0717 50.5007H46.5653V52.4577C45.7647 54.0588 44.7417 55.7045 43.4964 57.4835H46.6542V59.1291C46.2094 61.4419 45.7202 63.132 45.231 64.1994C45.231 64.2439 45.1865 64.2884 45.1865 64.3329C46.3874 65.4003 47.3214 66.0674 48.033 66.2898C48.7001 66.5567 49.6341 66.7791 50.9239 66.957C52.3917 67.1349 55.2826 67.2238 59.5968 67.2238C62.7546 67.2238 65.0674 67.1349 66.6241 67.0014L66.1793 69.759C57.9067 69.759 52.8364 69.67 51.0129 69.4921C49.3228 69.3142 48.033 69.0029 47.0545 68.5581C46.2094 68.2468 45.231 67.5352 44.1635 66.4677C43.4964 67.6686 42.6958 68.9139 41.7173 70.2037L39.8493 68.2468C41.1391 66.6901 42.0287 65.3113 42.5624 64.155C43.0072 63.4433 43.4964 61.9311 44.0301 59.7073H40.3831V57.6614C41.4505 56.4161 42.5179 54.7705 43.6298 52.7246H40.0272L40.0717 50.5007ZM42.6958 44.0072C44.0301 45.297 45.0975 46.5868 46.0315 47.8766L44.297 49.6112C43.5409 48.3659 42.5179 47.0316 41.1391 45.5639L42.6958 44.0072ZM51.8135 43.518C52.2137 44.4964 52.614 45.6528 52.9698 46.8982H56.2166V48.8551C56.8393 48.2324 57.3285 47.6098 57.7733 46.9871C58.4404 45.9642 59.0186 44.7188 59.4634 43.2511L61.8206 44.1851C61.4203 45.1636 61.0645 46.0086 60.7532 46.7203H66.4906V49.2554H59.2855C58.7073 50.056 57.9512 50.9455 56.9282 51.8795L54.9268 50.1004C55.2381 49.8336 55.5495 49.5667 55.8163 49.2999H51.5466V49.3444C51.5466 50.2784 51.5466 51.1234 51.5021 51.924H55.9498C55.7719 58.6844 55.5939 62.3759 55.3716 62.9541C55.1937 63.7992 54.9268 64.3773 54.5265 64.7332C54.2597 65.1779 53.6815 65.4003 52.8809 65.4892C51.9914 65.4892 51.2353 65.4448 50.6126 65.3558L50.1678 62.8651C51.5021 62.9986 52.3027 63.0431 52.5251 63.0431C52.7919 63.0431 52.9698 62.8207 53.0588 62.3759C53.2367 62.0646 53.3701 59.396 53.4146 54.3702H51.3687C51.2797 55.8379 51.1018 57.0832 50.9239 58.2396C50.5236 60.5524 49.7675 62.9096 48.5667 65.3113L46.3874 63.4433C47.3658 61.5753 48.033 59.5739 48.4777 57.3946C48.8335 55.66 49.0115 52.9914 49.0115 49.4333V49.3888H47.0545V46.9871H50.3902C49.9899 45.9197 49.5452 44.9412 49.1004 44.0072L51.8135 43.518ZM57.6843 51.3903H65.7345V53.2583C64.8895 54.3702 63.911 55.5266 62.7546 56.6385V57.2611H66.7575V59.6629H62.7546V63.4433C62.7546 64.1105 62.5767 64.6887 62.2654 65.1779C61.8206 65.6672 61.2869 65.8895 60.6642 65.8895H57.9957L57.284 63.2654C58.1736 63.3989 58.8852 63.4878 59.4634 63.4878C59.9971 63.4878 60.2195 63.221 60.2195 62.7317V59.6629H56.8838V57.2611H60.2195V56.2827C61.0201 55.66 61.8206 54.7705 62.6657 53.6586H57.7288L57.6843 51.3903Z" fill="black"/>
<path d="M80.5007 50.0115H98.7359V52.4132H92.6427C91.8866 53.0359 91.1305 53.6141 90.2854 54.1033C91.3084 55.3487 92.0645 56.6385 92.5093 57.9283C94.6441 56.9943 96.69 55.571 98.6025 53.7475L100.693 55.7934C99.492 56.8609 98.2022 57.8393 96.8235 58.6399C97.4906 60.1521 98.2467 61.5753 99.1807 62.8207C100.115 64.0215 101.36 65.3558 102.961 66.7791L101.049 69.1808C99.2252 67.4462 97.7575 65.7116 96.6456 63.9771C95.845 62.7762 95.1334 61.353 94.5107 59.7963C94.1104 60.0187 93.6656 60.1966 93.2209 60.33C93.4877 61.5754 93.6212 62.7762 93.6212 64.0215C93.6212 66.2454 93.2654 67.8465 92.5982 68.7805C91.9311 69.8035 89.8852 70.2927 86.416 70.2927L85.482 67.4462C85.571 67.5352 86.1047 67.5796 87.0831 67.5796C88.6843 67.5796 89.6628 67.4017 90.0186 67.0015C90.5523 66.4677 90.7747 65.4448 90.7747 63.9771C90.7747 63.5768 90.7302 63.132 90.6857 62.7317C89.0401 64.0215 87.5724 65 86.1936 65.6672C84.0588 66.7791 81.3902 67.891 78.1434 68.9139L76.6757 66.3788C79.878 65.5337 82.6355 64.5108 85.0372 63.3544C86.9942 62.3759 88.7288 61.2195 90.1965 59.9297C90.152 59.7073 90.0631 59.485 90.0186 59.2626C89.9296 58.9957 89.8407 58.7289 89.7517 58.462C88.1506 59.6184 86.7273 60.4634 85.482 60.9972C83.614 61.8867 81.2123 62.7317 78.3658 63.5323L76.9426 61.0861C79.7446 60.419 82.2352 59.6629 84.3256 58.7289C85.9712 58.0172 87.3945 57.2167 88.6843 56.2382C88.4619 55.8824 88.2395 55.5266 88.0171 55.2152C85.482 56.3271 82.5021 57.2611 79.1664 58.0172L77.6097 55.6155C81.2568 54.9484 84.1032 54.2368 86.1491 53.4807C87.0831 53.1693 87.9282 52.8135 88.6843 52.4132H80.5007V50.0115ZM89.9296 43.429C90.2854 44.0962 90.6413 44.8078 90.9526 45.6084H102.25V51.5682H99.6255V48.1435H79.6111V51.5682H76.987V45.6084H87.8392C87.5279 45.0302 87.1721 44.452 86.7718 43.9183L89.9296 43.429Z" fill="black"/>
<path d="M157 3L153.798 29.3744H127.423L127.379 29.33L138.409 7.62554C139.832 4.77905 142.723 3 145.925 3H157Z" fill="#EA5623"/>
<path d="M148.55 72.0272H105.674L127.334 29.3744H127.423L135.518 45.4748L148.55 72.0272Z" fill="#084A95"/>
<path d="M148.549 72.0272L135.518 45.4748L127.423 29.3744H153.798L148.549 72.0272Z" fill="#3793D1"/>
</svg>
