<svg xmlns="http://www.w3.org/2000/svg" viewBox="0 0 304.5 29.01"><path fill="#4c4948" d="M285.16 26.95h-.21l-5.96-2.06-4.94 4.12 5.55-.62 5.35-1.24.21-.2z"/><path fill="#adaeae" d="M284.95 27.15h.21v-.2l-.21.2z"/><path fill="#fff" d="M157.41 11.52h7.81v-1.23h-8.87V21.6h9.06v-1.02h-8v-4.33h7.6v-1.03h-7.6v-3.7zm30.44-1.23h-1.86l-4.94 9.87-4.93-9.87h-1.85v11.32h1.23v-9.69l4.93 9.69h1.24l4.94-9.69v9.69h1.24V10.29zm12.54 1.23v-1.23h-8.85V21.6h9.05v-1.02h-7.81v-4.33h7.41v-1.03h-7.41v-3.7h7.61zm16.67-1.23h-1.65l-4.93 9.87-5.15-9.87h-1.65v11.32h1.24v-9.69l4.93 9.69h1.03l4.94-9.69v9.69h1.24V10.29zm10.08 0h-6.37V21.6h6.16c2.47 0 3.7-1 3.7-3.08a2.57 2.57 0 00-2.26-2.88 2.43 2.43 0 001.86-2.48c0-1.84-1-2.87-3.09-2.87m-.21 1.23a1.73 1.73 0 012.26 1.64c-.2 1.44-1 2.06-2.67 2.06h-4.73v-3.7zm.21 4.73a2.06 2.06 0 012.26 2.27c0 1.44-.82 2.06-2.68 2.06h-4.93v-4.33zm15.85-4.73v-1.23h-8.85V21.6h9.04v-1.02h-8.02v-4.33h7.61v-1.03h-7.61v-3.7h7.83z"/><path fill="#dadadb" d="M273.85 10.9l-5.77.21 5.55 3.3 5.77-2.89-5.55-.62z"/><path fill="#4c4948" d="M273.64 14.41l-.21 6.58 3.3-4.53 2.67-4.94-5.76 2.89z"/><path fill="#adaeae" d="M273.43 20.99l.21-6.58-5.55-3.3 2.46 5.14 2.88 4.74z"/><path fill="#dadadb" d="M288.65 6.16v5.56l.83 5.56 2.88-5.76-3.71-5.36z"/><path fill="#4c4948" d="M298.74 11.11l-6.38.41-2.88 5.76 4.73-2.87 4.53-3.3z"/><path fill="#adaeae" d="M292.36 11.52l6.38-.41-4.94-2.88-5.15-2.07 3.71 5.36zm-5.75-.83l-1.25-5.55L283.51 0l-1.65 6.17 4.75 4.52z"/><path fill="#4c4948" d="M281.04 9.66l5.56 1.03-4.74-4.53-6.17 1.86 5.35 1.64z"/><path fill="#dadadb" d="M283.51 0l-4.32 3.7-3.5 4.33 6.17-1.87L283.51 0z"/><path fill="#adaeae" d="M294.21 23.45l.21-5.55-3.91 5.14 2.26 5.97 1.44-5.56z"/><path fill="#dadadb" d="M290.51 23.04l3.91-5.14-5.35 1.64-4.94 2.47 6.38 1.03z"/><path fill="#4c4948" d="M284.13 22.01l4.12 3.9 4.52 3.1-2.27-5.97-6.37-1.03z"/><path fill="#adaeae" d="M284.95 26.95l-3.09-4.53-4.11-3.9 1.24 6.37 5.96 2.06z"/><path fill="#dadadb" d="M274.05 29.01l4.94-4.12-1.24-6.37-3.7 10.49z"/><path d="M6.58 10.29H5.14L0 21.6h1.23l1.64-3.28h6l1.43 3.28h1.24zm1.65 7H3.29l2.47-5.76zm19.54-3.7h1c-.21-2.27-1.66-3.51-4.74-3.51s-4.53 1-4.53 3.3c0 1.43 1.44 2.45 4.12 3.08 2.89.21 4.11 1 4.32 2.06-.21 1.64-1.24 2.26-3.51 2.26-2.46 0-3.9-.83-3.9-2.88h-1.19c.2 2.68 1.85 4.11 5.13 4.11 3.09 0 4.74-1.23 4.74-3.49 0-1.65-1.44-2.69-4.12-3.09C22.22 15 21 14.2 21 13.15c0-1.42 1-2 3.09-2 2.26 0 3.49.81 3.7 2.48m8.83-2.11h4.32v-1.23h-9.87v1.23h4.31V21.6h1.24V11.52zm11.73-1.23h-1.44L41.77 21.6H43l1.64-3.28h6l1.44 3.28h1.23zm1.64 7h-4.93l2.47-5.76zm30.45-7H79L73.86 21.6h1.23l1.44-3.28h6l1.64 3.28h1.24zm1.65 7h-4.94l2.47-5.76zm6.99-7h-1.23v11.32h8.43v-1.03h-7.2V10.29zm10.91 0h-1.23v11.32h8.43v-1.03h-7.2V10.29zm9.87 0h1.03v11.32h-1.03zm42.79 3.91c-.2-2.68-2-4.12-5.34-4.12a6.33 6.33 0 00-4.73 2.06 5.92 5.92 0 00-1.44 3.9c0 3.91 2.05 5.77 6.17 6 3.3 0 5.14-1.64 5.56-4.53h-1.24c-.39 2.27-1.85 3.3-4.32 3.3-3.3 0-4.73-1.65-4.73-4.74 0-3.28 1.43-4.93 4.73-4.93 2.47 0 3.93 1 4.32 3.09zM129 10.29h-1.44v11.32h1.23v-9.47l7.82 9.47h1.45V10.29h-1.24v9.66L129 10.29zm-9 0h-1.23l-5.2 11.31h1.24l1.44-3.28h6l1.42 3.28h1.44zm1.85 7h-4.94l2.46-5.76zm181.2-9.67v2.67h.21V7.62h1.24V7.4h-2.67v.22h1.22zm-117.07 2.67l-4.93 9.87-4.94-9.87h-1.84v11.32h1.24v-9.69l4.92 9.69h1.23l4.95-9.69v9.69h1.23V10.29h-1.86zm17.71 0v11.32h1.23v-9.69l4.93 9.69h1.03l4.94-9.69v9.69h1.24V10.29h-1.65l-4.93 9.87-5.15-9.87h-1.64zm-3.3 0h-8.85v11.32h9.05v-1.03h-7.81v-4.33h7.41v-1.02h-7.41v-3.71h7.61v-1.23zm42.6 0h-8.85v11.32h9.04v-1.03h-8.02v-4.33h7.61v-1.02h-7.61v-3.71h7.83v-1.23zm12.95 9.04c0-2.06-.61-3.08-1.85-3.08a2.7 2.7 0 002.06-2.88c0-2-1.24-3.08-3.5-3.08h-6.17V21.6h1v-4.93h4.73a2.38 2.38 0 012.67 2.66 7.56 7.56 0 00.21 2.27h1.24zm-8.43-3.69v-4.12h5.14c1.65-.2 2.26.41 2.26 1.85a2.06 2.06 0 01-2.26 2.27zm-19.14 0a2.42 2.42 0 001.86-2.49c0-1.83-1-2.86-3.09-2.86h-6.37V21.6h6.16c2.47 0 3.7-1 3.7-3.08a2.57 2.57 0 00-2.26-2.88m-6.58-4.12h5.14a1.72 1.72 0 012.26 1.63c-.2 1.45-1 2.08-2.67 2.08h-4.73zm4.93 9.06h-4.93v-4.33h5.35a2.05 2.05 0 012.26 2.27c0 1.43-.81 2.06-2.68 2.06" fill="#fff"/><path d="M28.81 13.59c-.22-2.27-1.65-3.51-4.74-3.51s-4.53 1-4.53 3.3c0 1.43 1.44 2.45 4.12 3.08 2.88.21 4.11 1 4.32 2.06-.21 1.64-1.24 2.26-3.5 2.26-2.47 0-3.91-.83-3.91-2.88h-1.24c.21 2.68 1.86 4.11 5.15 4.11 3.08 0 4.74-1.23 4.74-3.49 0-1.65-1.45-2.69-4.13-3.09C22.22 15 21 14.2 21 13.15c0-1.42 1-2 3.09-2 2.26 0 3.49.81 3.7 2.48h1m2.27-2.11h4.33V21.6h1.23V11.52h4.32v-1.23h-9.88v1.23zm134.15 0v-1.23h-8.86V21.6h9.05v-1.02h-8v-4.33h7.61v-1.03h-7.61v-3.7h7.81zm-99.58 7.81c0-2.06-.82-3.08-1.85-3.08a2.69 2.69 0 002-2.88q0-3.07-3.7-3.08h-6V21.6h1v-4.93h4.53c1.85 0 2.68.81 2.68 2.66l.41 2.27H66a4.15 4.15 0 01-.41-2.27m-3.5-3.69h-4.9v-4.12h5.15c1.44-.2 2.26.41 2.26 1.85s-.82 2.27-2.47 2.27m25.72-5.35v11.32h8.43v-1.03h-7.2V10.29h-1.23zm10.9 0v11.32h8.44v-1.03h-7.2V10.29h-1.24zm11.11 0h1.03v11.32h-1.03zm42.79 3.91c-.2-2.68-2-4.12-5.34-4.12a6.33 6.33 0 00-4.73 2.06 5.92 5.92 0 00-1.44 3.9c0 3.91 2.05 5.77 6.17 6 3.3 0 5.14-1.64 5.56-4.53h-1.24c-.39 2.27-1.85 3.3-4.32 3.3-3.3 0-4.73-1.65-4.73-4.74 0-3.28 1.43-4.93 4.73-4.93 2.47 0 3.93 1 4.32 3.09h1m-15.81-3.94v9.66L129 10.29h-1.44v11.32h1.23v-9.47l7.82 9.47h1.44V10.29h-1.23zm-16.82 0h-1.23l-5.2 11.31h1.24l1.44-3.28h6l1.42 3.28h1.45zm-3.09 7l2.46-5.76 2.48 5.76zm-36.47-7H79L73.86 21.6h1.23l1.44-3.28h6l1.64 3.28h1.23zm-3.29 7l2.47-5.76 2.47 5.76zm-28.81-7h-1.43L41.77 21.6H43l1.64-3.28h6l1.44 3.28h1.23zm-3.28 7l2.47-5.76L50 17.28zm-38.48-7H5.14L0 21.6h1.23l1.65-3.28h6l1.43 3.28h1.24zm-3.29 7l2.47-5.76 2.46 5.76z" fill="#fff"/></svg>