<svg xmlns="http://www.w3.org/2000/svg" viewBox="0 0 479.45 78.41"><path d="M172.14 62.54l-2.28-19.31c-.1-.91-.86-1.27-1.72-1.27h-4.65l.91 7-7.33 13.6-2.73-19.31c-.1-.91-.86-1.27-1.72-1.27h-4.85l4.29 29.43h3.24l9.7-17.56 2.27 17.54h3.25L187.31 42h-3.54zM33.17 71.39h6.77l6.28-29.43h-6.78l-6.27 29.43zM226.53 42H201.7c.41 2 1.25 2.89 3.74 2.89H218l-19.89 21c-1.71 1.82-2.83 3-2.93 5.5H221c-.39-2-1.25-2.86-3.69-2.87h-13.09l19.12-20.73c2.43-2.72 3-4.15 3.19-5.82M64.41 42H51.57l1.31 2.56-5.7 26.86H54l5.61-26.72h2.08c3.89 0 5.56 2.37 5.26 5.92-.25 3.17-2.49 6.62-9.31 7.37l5.46 10.16c1.42 2.59 2.08 3.23 5.81 3.23h3.59L64.93 58.9c4-.65 8.49-3.34 9-8.09.61-5.46-3.18-8.85-9.51-8.85m-43.33-2.57L0 71.39h3.79l5.26-7.84h12.44l.56 3.64c.4 2.88 1.11 4.2 4.3 4.2h3.22l-5.1-32zm-10 21.13l8.19-12.24 1.83 12.24zm100.26 1.82L101.8 45.1c-1.37-2.48-2.08-3.14-5-3.14h-4.2l1.77 3.44-5.52 26h3.55L97 49.75l10.51 18.41c1.16 2.07 2.23 3.23 5.47 3.23L119.24 42h-3.54zm7.9 9.05h21.54c-.4-2-1.26-2.88-3.75-2.88h-10.35L129 57.69h10.66l.61-2.92h-10.71l2.13-9.92h9.85c2.48 0 3.34-.86 3.75-2.89h-19.77zM356 62.34l-9.52-17.24c-1.37-2.48-2.07-3.14-5-3.14h-4.2l1.78 3.44-5.52 26h3.54l4.61-21.64 10.5 18.41c1.18 2.07 2.23 3.23 5.47 3.23l6.25-29.4h-3.53zm57.17 1.47c4.16 9.11 11 14.6 19.46 14.6 7.91 0 13.29-6.34 13.29-12.39 0-6.84-5-11.33-10.89-11.33-6.28 0-7.6 5-7.6 6.23a5.48 5.48 0 005.2 5.56c4.59 0 4.93-3.84 4.93-3.84A4 4 0 01439 66c0 2.37-1.91 5.37-6.35 5.37-3.55 0-8.75-2-12.34-9.91-4.23-9.34-4.53-12.11-4.53-12.11h55.66L474.6 42h-70s3.68 11.18 8.58 21.86M247.82 44.85c2.47 0 3.34-.86 3.74-2.89h-19.77l-6.26 29.43h21.52c-.4-2-1.26-2.88-3.74-2.88H233l2.33-10.82h10.66l.61-2.92h-10.77l2.17-9.92zm174.71-14.22a130 130 0 0113.57-15.27c2.33-2.29 8.41-8 14.61-8 4.06 0 7.21 2.67 7.21 6.3a4.78 4.78 0 01-2.9 4.62c.29-1.53-.63-5.73-4.48-5.73a5.44 5.44 0 00-5.65 5.34c0 4.41 3.8 7.57 8.23 7.57 8.52 0 12.47-6.35 12.47-12.52S459.89 0 450.71 0c-8.46 0-16.29 6.27-20.71 10.85A333.44 333.44 0 00405.8 38h70.47l3.18-7.41zM267.61 42l-18.86 29.39h3.79l5-7.84h11.32l.76 3.64c.6 2.85 1.27 4.2 4.45 4.2h3.23L271 42zm-8.13 18.56l6.52-10.3 2.19 10.26zM320.19 42l-18.87 29.39h3.79l5-7.84h11.32l.76 3.64c.61 2.85 1.26 4.2 4.45 4.2h3.24L323.57 42zM312 60.52l6.57-10.26 2.18 10.26zm-16.12 7.99h-7.58L294 42h-6.77l-6.28 29.42h18.71c-.39-2-1.26-2.87-3.74-2.87M380.7 42h-11.39l1.3 2.54-5.73 26.88h10.26c9.2 0 17.8-5.41 19.26-14.71S389.6 42 380.7 42m6.73 14.71c-1.12 7.59-6.94 12-13.35 12h-1.87l5.11-23.92h1.86c6.43 0 9.36 4.46 8.25 11.94" fill="#fff"/></svg>