<svg xmlns="http://www.w3.org/2000/svg" viewBox="0 0 450 128.57"><path d="M161.94,57,159.87,39.4c-.09-.84-.79-1.16-1.58-1.16h-4.23l.83,6.36L148.21,57,145.72,39.4c-.09-.84-.79-1.16-1.56-1.16h-4.43l3.91,26.81h3l8.85-16,2.07,16h3l15.2-26.85h-3.22Z" style="fill:#fff"/><polygon points="35.3 65.05 41.46 65.05 47.19 38.24 41.01 38.24 35.3 65.05" style="fill:#fff"/><path d="M211.51,38.2H188.88c.37,1.84,1.14,2.63,3.41,2.63h11.42L185.59,60c-1.56,1.65-2.58,2.76-2.67,5h23.55c-.36-1.83-1.14-2.61-3.36-2.62H191.17L208.6,43.49c2.22-2.48,2.72-3.78,2.91-5.3" style="fill:#fff"/><path d="M63.77,38.2H52.06l1.2,2.33L48.06,65h6.17l5.16-24.32h1.89c3.56,0,5.07,2.17,4.8,5.4-.23,2.89-2.27,6-8.48,6.71l5,9.27C63.9,64.42,64.49,65,67.9,65h3.27l-6.9-11.37c3.68-.6,7.74-3,8.19-7.38.56-5-2.9-8.06-8.66-8.06" style="fill:#fff"/><path d="M24.29,35.9,5.07,65.06H8.52l4.8-7.15H24.65l.51,3.32c.37,2.62,1,3.83,3.92,3.83H32L27.36,35.9ZM15.16,55.2l7.46-11.15L24.29,55.2Z" style="fill:#fff"/><path d="M106.54,56.81,97.84,41.1c-1.25-2.26-1.9-2.86-4.56-2.86H89.45l1.62,3.13-5,23.68H89.3l4.19-19.71,9.59,16.77c1,1.89,2,2.94,5,2.94l5.7-26.81h-3.22Z" style="fill:#fff"/><path d="M113.74,65.05h19.63c-.37-1.84-1.15-2.61-3.42-2.61h-9.43l2.11-9.87h9.72l.56-2.66h-9.77l1.94-9h9c2.26,0,3-.79,3.41-2.63h-18Z" style="fill:#fff"/><path d="M329.52,56.81l-8.7-15.71c-1.25-2.26-1.89-2.86-4.57-2.86h-3.82L314,41.37l-5,23.68h3.24l4.2-19.71L326,62.11c1.07,1.89,2,2.94,5,2.94l5.71-26.85h-3.22Z" style="fill:#fff"/><path d="M381.6,58.2c3.79,8.3,10.06,13.3,17.72,13.3,7.22,0,12.12-5.77,12.12-11.28,0-6.24-4.54-10.34-9.92-10.34-5.73,0-6.93,4.55-6.93,5.69a5,5,0,0,0,4.73,5.06c4.19,0,4.5-3.5,4.5-3.5a3.66,3.66,0,0,1,1.3,3.09c0,2.15-1.75,4.89-5.8,4.89-3.23,0-8-1.78-11.24-9-3.85-8.5-4.13-11-4.13-11h50.73l2.89-6.77H373.78s3.35,10.19,7.82,19.93" style="fill:#fff"/><path d="M230.91,40.87c2.25,0,3.05-.78,3.41-2.63h-18l-5.71,26.81h19.62c-.37-1.84-1.15-2.62-3.41-2.62h-9.44l2.12-9.86h9.72l.55-2.66H220l1.94-9Z" style="fill:#fff"/><path d="M390.13,27.91A118.36,118.36,0,0,1,402.49,14c2.12-2.08,7.67-7.33,13.31-7.33,3.71,0,6.58,2.43,6.58,5.74a4.35,4.35,0,0,1-2.65,4.21c.27-1.39-.57-5.22-4.08-5.22a5,5,0,0,0-5.14,4.86h0c0,4,3.45,6.9,7.5,6.9,7.75,0,11.35-5.8,11.35-11.41S424.17,0,415.8,0C408.09,0,401,5.71,396.91,9.89a304,304,0,0,0-22,24.77h64.22l2.9-6.75Z" style="fill:#fff"/><path d="M249,38.2,231.81,65h3.45l4.57-7.15H250.1l.69,3.32c.55,2.6,1.16,3.83,4.06,3.83h2.94L252,38.2Zm-7.47,17,6-9.35,2,9.35Z" style="fill:#fff"/><path d="M296.86,38.2,279.67,65h3.45l4.56-7.15H298l.7,3.32c.55,2.6,1.14,3.83,4.05,3.83h2.95L299.94,38.2Zm-7.42,17,6-9.35,2,9.35Z" style="fill:#fff"/><path d="M274.71,62.43H267.8L273,38.2h-6.18L261.11,65h17.05c-.36-1.84-1.15-2.62-3.41-2.62" style="fill:#fff"/><path d="M352,38.2H341.62l1.19,2.32L337.59,65h9.35c8.38,0,16.22-4.93,17.55-13.41S360.12,38.2,352,38.2m6.14,13.41c-1,6.92-6.32,10.92-12.17,10.92h-1.7l4.65-21.8h1.7c5.85,0,8.53,4.06,7.52,10.88" style="fill:#fff"/><polygon points="342.88 126.69 342.68 126.69 337.25 124.82 332.75 128.57 337.81 128.01 342.68 126.88 342.88 126.69" style="fill:#4c4948"/><polygon points="342.68 126.88 342.88 126.88 342.88 126.69 342.68 126.88" style="fill:#adaeae"/><polygon points="226.45 112.63 233.57 112.63 233.57 111.51 225.49 111.51 225.49 121.82 233.74 121.82 233.74 120.89 226.45 120.89 226.45 116.95 233.38 116.95 233.38 116.01 226.45 116.01 226.45 112.63" style="fill:#fff"/><polygon points="254.19 111.51 252.5 111.51 248 120.51 243.5 111.51 241.82 111.51 241.82 121.82 242.94 121.82 242.94 113 247.43 121.82 248.56 121.82 253.06 113 253.06 121.82 254.19 121.82 254.19 111.51" style="fill:#fff"/><polygon points="265.62 112.63 265.62 111.51 257.56 111.51 257.56 121.82 265.81 121.82 265.81 120.89 258.69 120.89 258.69 116.95 265.44 116.95 265.44 116.01 258.69 116.01 258.69 112.63 265.62 112.63" style="fill:#fff"/><polygon points="280.81 111.51 279.31 111.51 274.82 120.51 270.13 111.51 268.63 111.51 268.63 121.82 269.75 121.82 269.75 113 274.25 121.82 275.18 121.82 279.69 113 279.69 121.82 280.81 121.82 280.81 111.51" style="fill:#fff"/><path d="M290,111.51h-5.81v10.31h5.62c2.25,0,3.38-.94,3.37-2.81a2.35,2.35,0,0,0-2-2.62h0a2.22,2.22,0,0,0,1.69-2.27c0-1.67-.94-2.61-2.81-2.61m-.19,1.12a1.58,1.58,0,0,1,2,1,1.77,1.77,0,0,1,.07.46c-.19,1.32-.94,1.89-2.44,1.89h-4.3v-3.38Zm.19,4.31a1.88,1.88,0,0,1,2.06,1.68,2.54,2.54,0,0,1,0,.39c0,1.31-.75,1.87-2.44,1.87h-4.49v-3.94Z" style="fill:#fff"/><polygon points="304.44 112.63 304.44 111.51 296.38 111.51 296.38 121.82 304.62 121.82 304.62 120.89 297.31 120.89 297.31 116.95 304.24 116.95 304.24 116.01 297.31 116.01 297.31 112.63 304.44 112.63" style="fill:#fff"/><polygon points="332.56 112.07 327.31 112.26 332.37 115.27 337.63 112.64 332.56 112.07" style="fill:#dadadb"/><polygon points="332.38 115.26 332.18 121.26 335.19 117.13 337.63 112.63 332.38 115.26" style="fill:#4c4948"/><polygon points="332.18 121.26 332.37 115.27 327.31 112.26 329.56 116.95 332.18 121.26" style="fill:#adaeae"/><polygon points="346.06 107.75 346.06 112.81 346.81 117.88 349.43 112.63 346.06 107.75" style="fill:#dadadb"/><polygon points="355.25 112.26 349.43 112.63 346.81 117.88 351.12 115.26 355.25 112.26" style="fill:#4c4948"/><polygon points="349.43 112.63 355.25 112.26 350.75 109.64 346.05 107.75 349.43 112.63" style="fill:#adaeae"/><polygon points="344.19 111.88 343.06 106.82 341.37 102.14 339.87 107.75 344.19 111.88" style="fill:#adaeae"/><polygon points="339.12 110.94 344.19 111.88 339.87 107.75 334.24 109.45 339.12 110.94" style="fill:#4c4948"/><polygon points="341.37 102.13 337.43 105.51 334.25 109.45 339.87 107.75 341.37 102.13" style="fill:#dadadb"/><polygon points="351.12 123.51 351.31 118.45 347.75 123.13 349.81 128.57 351.12 123.51" style="fill:#adaeae"/><polygon points="347.75 123.13 351.31 118.45 346.43 119.94 341.93 122.19 347.75 123.13" style="fill:#dadadb"/><polygon points="341.93 122.19 345.69 125.75 349.81 128.57 347.75 123.13 341.93 122.19" style="fill:#4c4948"/><polygon points="342.68 126.69 339.87 122.57 336.12 119.01 337.25 124.82 342.68 126.69" style="fill:#adaeae"/><polygon points="332.75 128.57 337.25 124.82 336.12 119.01 332.75 128.57" style="fill:#dadadb"/><path d="M89,111.51H87.69L83,121.82h1.12l1.49-3h5.45l1.3,3H93.5Zm1.5,6.37H86l2.24-5.25Z" style="fill:#fff"/><path d="M108.31,114.52h1c-.2-2.07-1.51-3.2-4.32-3.2s-4.13.93-4.13,3c0,1.31,1.31,2.24,3.75,2.81,2.64.19,3.75.94,3.94,1.88-.19,1.5-1.13,2.06-3.19,2.06-2.25,0-3.56-.75-3.56-2.62h-1.12c.18,2.44,1.69,3.74,4.68,3.74,2.81,0,4.32-1.12,4.32-3.18,0-1.51-1.32-2.45-3.76-2.81-2.61-.38-3.75-1.13-3.75-2.08,0-1.3.94-1.87,2.82-1.87,2.06,0,3.18.75,3.37,2.27" style="fill:#fff"/><polygon points="116.38 112.63 120.31 112.63 120.31 111.51 111.31 111.51 111.31 112.63 115.25 112.63 115.25 121.82 116.38 121.82 116.38 112.63" style="fill:#fff"/><path d="M127.07,111.51h-1.32l-4.68,10.31h1.12l1.5-3h5.44l1.31,3h1.12Zm1.5,6.37h-4.5l2.25-5.25Z" style="fill:#fff"/><path d="M156.31,111.51H155l-4.69,10.31h1.13l1.31-3h5.45l1.49,3h1.13Zm1.5,6.37h-4.5l2.25-5.25Z" style="fill:#fff"/><polygon points="164.19 111.51 163.06 111.51 163.06 121.82 170.75 121.82 170.75 120.89 164.19 120.89 164.19 111.51" style="fill:#fff"/><polygon points="174.13 111.51 173 111.51 173 121.82 180.69 121.82 180.69 120.89 174.13 120.89 174.13 111.51" style="fill:#fff"/><rect x="183.12" y="111.51" width="0.94" height="10.31" style="fill:#fff"/><path d="M222.12,115.07c-.18-2.44-1.86-3.75-4.87-3.75a5.77,5.77,0,0,0-4.31,1.88,5.45,5.45,0,0,0-1.32,3.55c0,3.57,1.88,5.26,5.63,5.44,3,0,4.69-1.49,5.07-4.12h-1.13c-.36,2.06-1.69,3-3.94,3-3,0-4.31-1.5-4.31-4.32,0-3,1.3-4.49,4.31-4.49,2.25,0,3.58.94,3.94,2.81Z" style="fill:#fff"/><polygon points="200.57 111.51 199.25 111.51 199.25 121.82 200.38 121.82 200.38 113.2 207.5 121.82 208.82 121.82 208.82 111.51 207.69 111.51 207.69 120.32 200.57 111.51" style="fill:#fff"/><path d="M192.32,111.51h-1.13l-4.69,10.31h1.13l1.31-3h5.44l1.3,3H197Zm1.68,6.37h-4.5l2.25-5.25Z" style="fill:#fff"/><polygon points="359.18 109.07 359.18 111.51 359.37 111.51 359.37 109.07 360.5 109.07 360.5 108.88 358.06 108.88 358.06 109.07 359.18 109.07"/><polygon points="363.68 108.88 362.56 111.14 361.43 108.88 361.06 108.88 361.06 111.51 361.43 111.51 361.43 109.25 362.37 111.51 362.75 111.51 363.88 109.25 363.88 111.51 364.06 111.51 364.06 108.88 363.68 108.88"/><polygon points="252.49 111.51 248 120.51 243.5 111.51 241.82 111.51 241.82 121.82 242.95 121.82 242.95 113 247.44 121.82 248.56 121.82 253.06 113 253.06 121.82 254.19 121.82 254.19 111.51 252.49 111.51" style="fill:#fff"/><polygon points="268.63 111.51 268.63 121.82 269.75 121.82 269.75 113 274.24 121.82 275.18 121.82 279.69 113 279.69 121.82 280.81 121.82 280.81 111.51 279.31 111.51 274.81 120.51 270.13 111.51 268.63 111.51" style="fill:#fff"/><polygon points="265.62 111.51 257.56 111.51 257.56 121.82 265.81 121.82 265.81 120.89 258.69 120.89 258.69 116.95 265.44 116.95 265.44 116.01 258.69 116.01 258.69 112.63 265.62 112.63 265.62 111.51" style="fill:#fff"/><polygon points="304.44 111.51 296.38 111.51 296.38 121.82 304.62 121.82 304.62 120.89 297.31 120.89 297.31 116.95 304.24 116.95 304.24 116.01 297.31 116.01 297.31 112.63 304.44 112.63 304.44 111.51" style="fill:#fff"/><path d="M316.25,119.75c0-1.87-.56-2.8-1.69-2.8a2.47,2.47,0,0,0,1.87-2.63c0-1.87-1.12-2.81-3.18-2.81h-5.62v10.31h.93v-4.5h4.31a2.18,2.18,0,0,1,2.44,1.89,2.44,2.44,0,0,1,0,.54,6.87,6.87,0,0,0,.19,2.07h1.12Zm-7.69-3.36v-3.76h4.69c1.5-.18,2.06.37,2.06,1.69a1.88,1.88,0,0,1-1.67,2.07,2.54,2.54,0,0,1-.39,0Z" style="fill:#fff"/><path d="M291.12,116.39a2.2,2.2,0,0,0,1.69-2.27c0-1.67-.94-2.61-2.81-2.61h-5.81v10.31h5.62c2.25,0,3.37-.93,3.37-2.81a2.35,2.35,0,0,0-2-2.62h0m-6-3.76h4.68a1.58,1.58,0,0,1,2,1,1.77,1.77,0,0,1,.07.46c-.19,1.32-.94,1.89-2.44,1.89h-4.3Zm4.49,8.26h-4.49V117H290a1.87,1.87,0,0,1,2.06,1.66,2.67,2.67,0,0,1,0,.4c0,1.31-.74,1.88-2.44,1.88" style="fill:#fff"/><path d="M109.26,114.52c-.2-2.07-1.51-3.2-4.32-3.2s-4.13.93-4.13,3c0,1.31,1.31,2.24,3.76,2.81,2.62.19,3.75.94,3.93,1.88-.18,1.5-1.13,2.06-3.19,2.06-2.24,0-3.56-.75-3.56-2.62h-1.13c.19,2.44,1.7,3.74,4.69,3.74,2.81,0,4.32-1.12,4.32-3.18,0-1.51-1.31-2.45-3.76-2.81-2.61-.38-3.75-1.13-3.75-2.08,0-1.3.95-1.87,2.82-1.87,2.06,0,3.18.75,3.38,2.27h.94" style="fill:#fff"/><polygon points="111.31 112.63 115.25 112.63 115.25 121.82 116.38 121.82 116.38 112.63 120.31 112.63 120.31 111.51 111.31 111.51 111.31 112.63" style="fill:#fff"/><polygon points="233.56 112.63 233.56 111.51 225.49 111.51 225.49 121.82 233.74 121.82 233.74 120.89 226.45 120.89 226.45 116.95 233.38 116.95 233.38 116.01 226.45 116.01 226.45 112.63 233.56 112.63" style="fill:#fff"/><path d="M142.82,119.75c0-1.87-.76-2.8-1.69-2.8a2.47,2.47,0,0,0,1.87-2.63q0-2.8-3.38-2.81h-5.43v10.31h.94v-4.5h4.12c1.68,0,2.44.75,2.44,2.43l.37,2.07h1.13a3.79,3.79,0,0,1-.37-2.07m-3.2-3.36h-4.49v-3.76h4.68c1.32-.18,2.06.37,2.06,1.69s-.74,2.07-2.25,2.07" style="fill:#fff"/><polygon points="163.06 111.51 163.06 121.82 170.74 121.82 170.74 120.89 164.19 120.89 164.19 111.51 163.06 111.51" style="fill:#fff"/><polygon points="173 111.51 173 121.82 180.69 121.82 180.69 120.89 174.12 120.89 174.12 111.51 173 111.51" style="fill:#fff"/><rect x="183.12" y="111.51" width="0.94" height="10.31" style="fill:#fff"/><path d="M222.12,115.07c-.18-2.44-1.86-3.75-4.87-3.75a5.77,5.77,0,0,0-4.31,1.88,5.45,5.45,0,0,0-1.32,3.55c0,3.57,1.88,5.26,5.63,5.44,3,0,4.69-1.49,5.07-4.12h-1.13c-.36,2.06-1.69,3-3.94,3-3,0-4.31-1.5-4.31-4.32,0-3,1.3-4.49,4.31-4.49,2.25,0,3.58.94,3.94,2.81h.93" style="fill:#fff"/><polygon points="207.69 111.51 207.69 120.32 200.56 111.51 199.25 111.51 199.25 121.82 200.38 121.82 200.38 113.2 207.5 121.82 208.81 121.82 208.81 111.51 207.69 111.51" style="fill:#fff"/><path d="M192.31,111.51h-1.12l-4.69,10.31h1.13l1.31-3h5.44l1.3,3H197Zm-2.81,6.37,2.24-5.25,2.26,5.25Z" style="fill:#fff"/><path d="M156.31,111.51H155l-4.68,10.31h1.11l1.32-3h5.44l1.5,3h1.13Zm-3,6.37,2.26-5.25,2.24,5.25Z" style="fill:#fff"/><path d="M127.06,111.51h-1.31l-4.68,10.31h1.12l1.5-3h5.44l1.31,3h1.12Zm-3,6.37,2.25-5.25,2.24,5.25Z" style="fill:#fff"/><path d="M89,111.51H87.69L83,121.82h1.13l1.5-3h5.44l1.31,3H93.5Zm-3,6.37,2.25-5.25,2.25,5.25Z" style="fill:#fff"/><line y1="89.2" x2="450" y2="89.2" style="fill:none;stroke:#fff;stroke-miterlimit:10;stroke-width:1.611218810081482px"/></svg>