<svg width="158" height="80" viewBox="0 0 158 80" fill="none" xmlns="http://www.w3.org/2000/svg">
<path d="M0.498709 12.514H14.6892L14.1905 16.6565H9.33945L6.7099 35.8211H2.35753L4.98709 16.6565H0L0.498709 12.514Z" fill="#231815"/>
<path d="M14.9613 18.5684H18.7242L18.4069 20.9356C19.5403 19.0692 20.9004 18.1588 22.4872 18.1588C22.8499 18.1588 23.258 18.2498 23.666 18.4774L22.1245 22.3467C21.8072 22.2102 21.5805 22.1647 21.3991 22.1647C20.5831 22.1647 19.8577 22.6199 19.1776 23.6213C18.5429 24.5773 17.9989 26.4892 17.6362 29.4026L16.8201 35.9122H12.6037L14.9613 18.5684Z" fill="#231815"/>
<path d="M38.8993 18.5684H43.1157L40.7128 35.8211H36.5418L36.8138 33.9547C35.907 34.8197 35.0456 35.4114 34.2296 35.7301C33.4135 36.0487 32.5521 36.2308 31.5547 36.2308C29.2878 36.2308 27.4743 35.4114 26.1142 33.7271C24.7541 32.0428 24.1194 30.0854 24.1194 27.8549C24.1194 26.1705 24.5274 24.5318 25.3888 22.984C26.2502 21.4363 27.3837 20.2527 28.8344 19.3878C30.2852 18.5229 31.7814 18.1132 33.3682 18.1132C34.4109 18.1132 35.4083 18.3408 36.3151 18.8416C37.2218 19.3423 37.9472 20.0251 38.5366 20.9811L38.8993 18.5684ZM32.5521 32.4981C33.5949 32.4981 34.5016 32.2704 35.2723 31.8152C36.0431 31.36 36.6778 30.6317 37.2218 29.6302C37.7659 28.6287 37.9926 27.6272 37.9926 26.5802C37.9926 25.2146 37.5845 24.1221 36.8138 23.3027C36.0431 22.4833 35.0003 22.0736 33.6855 22.0736C32.1894 22.0736 30.92 22.6199 29.8319 23.7579C28.7891 24.8504 28.2451 26.3071 28.2451 28.0369C28.2451 29.4026 28.6531 30.4951 29.4238 31.3145C30.2852 32.0884 31.328 32.4981 32.5521 32.4981Z" fill="#231815"/>
<path d="M45.4279 18.5684H49.5535L52.2284 28.1735L57.7596 18.5684H62.3386L52.3644 35.8211H50.3243L45.4279 18.5684Z" fill="#231815"/>
<path d="M76.3025 30.8138L80.0201 32.7257C79.204 33.8182 78.0706 34.6831 76.7105 35.3204C75.3504 35.9577 73.8089 36.2763 72.1314 36.2763C69.5019 36.2763 67.4617 35.548 65.9202 34.0458C64.4241 32.5436 63.6534 30.5861 63.6534 28.128C63.6534 25.3056 64.6055 22.9385 66.5096 21.0266C68.4138 19.0692 70.6806 18.1132 73.3555 18.1132C74.9877 18.1132 76.3931 18.4774 77.6626 19.1602C78.932 19.8886 79.9294 20.89 80.6548 22.2557C81.3802 23.6213 81.7429 25.078 81.7429 26.6713C81.7429 27.172 81.6976 27.7638 81.6069 28.4011H67.8697C67.9151 29.5847 68.3231 30.5406 69.0485 31.269C69.7739 31.9973 70.8167 32.316 72.1314 32.316C73.6729 32.407 75.0783 31.8608 76.3025 30.8138ZM77.3905 25.3512C77.0732 24.3042 76.5291 23.4848 75.8037 22.9385C75.0783 22.3923 74.1716 22.1191 73.1289 22.1191C72.0861 22.1191 71.1794 22.3923 70.3179 22.9385C69.5019 23.4848 68.8672 24.3042 68.4138 25.3056H77.3905V25.3512Z" fill="#231815"/>
<path d="M86.866 11.9222H91.0824L87.8181 35.8666H83.6017L86.866 11.9222Z" fill="#231815"/>
<path d="M104.774 30.8138L108.492 32.7257C107.676 33.8182 106.542 34.6831 105.182 35.3204C103.822 35.9577 102.281 36.2763 100.603 36.2763C97.9736 36.2763 95.9334 35.548 94.392 34.0458C92.8959 32.5436 92.1251 30.5861 92.1251 28.128C92.1251 25.3056 93.0772 22.9385 94.9814 21.0266C96.8855 19.0692 99.1524 18.1132 101.827 18.1132C103.459 18.1132 104.865 18.4774 106.134 19.1602C107.404 19.8886 108.401 20.89 109.127 22.2557C109.852 23.6213 110.215 25.078 110.215 26.6713C110.215 27.172 110.169 27.7638 110.079 28.4011H96.3415C96.3868 29.5847 96.7949 30.5406 97.5202 31.269C98.2456 31.9973 99.2884 32.316 100.603 32.316C102.145 32.407 103.55 31.8608 104.774 30.8138ZM105.862 25.3512C105.545 24.3042 105.001 23.4848 104.275 22.9385C103.55 22.3923 102.643 22.1191 101.601 22.1191C100.558 22.1191 99.6511 22.3923 98.7897 22.9385C97.9736 23.4848 97.3389 24.3042 96.8855 25.3056H105.862V25.3512Z" fill="#231815"/>
<path d="M113.978 18.5684H117.741L117.423 20.9356C118.557 19.0692 119.917 18.1588 121.504 18.1588C121.866 18.1588 122.274 18.2498 122.682 18.4774L121.141 22.3467C120.824 22.2102 120.597 22.1647 120.415 22.1647C119.599 22.1647 118.874 22.6199 118.194 23.6213C117.559 24.5773 117.015 26.4892 116.653 29.4026L115.836 35.9122H111.62L113.978 18.5684Z" fill="#231815"/>
<path d="M6.48321 44.2424C7.5713 45.4715 8.43271 46.5184 9.06743 47.3834L7.38996 48.5669H12.6491V51.1617H7.0726C7.0726 52.6183 7.02726 54.0295 6.98192 55.3041H12.241C12.241 62.7241 12.1504 67.1397 11.969 68.5054C11.833 69.5979 11.6063 70.2807 11.2436 70.5994C10.8356 71.0546 10.0195 71.2822 8.88608 71.2822C8.25136 71.2822 7.52597 71.2367 6.7099 71.1456L6.21119 68.3233C7.0726 68.4599 7.97934 68.5054 8.88608 68.5054C9.29412 68.5054 9.56614 68.1412 9.61148 67.3674C9.70215 66.4114 9.74749 63.2704 9.74749 57.9444H6.75524C6.61922 59.5376 6.43788 60.9488 6.25653 62.2234C5.75782 65.3189 4.85108 68.5054 3.49096 71.6919L1.26944 69.78C2.44821 67.1853 3.30961 64.4085 3.76298 61.4495C4.17102 59.1279 4.3977 55.7138 4.3977 51.1161H1.81349V48.5214H6.48321C5.93917 47.611 5.30445 46.564 4.48838 45.4715L6.48321 44.2424ZM16.4121 44.3789L19.0416 45.3804C18.7242 46.2453 18.4522 47.0192 18.1802 47.702H28.1544V50.1602H17.1374C17.0014 50.3878 16.9108 50.6154 16.8201 50.752C16.1854 51.981 15.0973 53.4377 13.5105 55.122L11.289 53.1191C12.6491 51.7534 13.6918 50.4333 14.5079 49.1587C15.2333 47.8386 15.9133 46.2453 16.4121 44.3789ZM24.9808 51.2982L26.7943 53.8019C25.2528 54.3026 23.666 54.7579 21.9885 55.1676C22.2605 56.5332 22.5779 57.8078 22.9406 58.9914C24.4821 58.3086 25.8875 57.3526 27.1116 56.1235L28.7891 58.0354C27.1116 59.5832 25.4795 60.7667 23.802 61.5861C24.074 62.2689 24.3007 62.8607 24.5727 63.407C25.6608 65.7286 27.1116 67.686 29.0158 69.2337L27.2023 71.874C25.0261 69.871 23.394 67.686 22.3512 65.2734C21.1271 62.5876 20.1297 59.4011 19.359 55.6683C18.6336 55.8049 17.9535 55.9414 17.2735 56.078V67.595C18.9056 67.1397 20.4471 66.6845 21.8978 66.1838V69.0061C19.4496 69.9166 16.5934 70.7815 13.4198 71.5098L12.5584 68.6875C13.2385 68.5509 13.9185 68.3688 14.5986 68.2323V54.0295C18.4069 53.4377 21.8525 52.4818 24.9808 51.2982Z" fill="#231815"/>
<path d="M38.8086 51.6171H45.4278V53.6201C44.6118 55.2588 43.569 56.9431 42.2996 58.764H45.5185V60.4483C45.0651 62.8154 44.5664 64.5453 44.0677 65.6378C44.0677 65.6833 44.0224 65.7288 44.0224 65.7743C45.2465 66.8669 46.1986 67.5497 46.9239 67.7773C47.604 68.0504 48.5561 68.278 49.8709 68.4601C51.367 68.6422 54.3139 68.7332 58.7116 68.7332C61.9305 68.7332 64.2881 68.6422 65.8749 68.5056L65.4215 71.328C56.9888 71.328 51.8204 71.2369 49.9615 71.0548C48.2387 70.8728 46.9239 70.5541 45.9265 70.0989C45.0651 69.7802 44.0677 69.0519 42.9796 67.9594C42.2996 69.1885 41.4835 70.4631 40.4861 71.7832L38.5819 69.7802C39.8967 68.187 40.8034 66.7758 41.3475 65.5922C41.8008 64.8639 42.2996 63.3162 42.8436 61.0401H39.126V58.9461C40.214 57.6715 41.3021 55.9872 42.4356 53.8932H38.7633V51.6171H38.8086ZM41.4835 44.971C42.8436 46.2911 43.9317 47.6112 44.8838 48.9313L43.1156 50.7067C42.3449 49.4321 41.3021 48.0664 39.8967 46.5642L41.4835 44.971ZM50.7776 44.4702C51.1856 45.4717 51.5937 46.6553 51.9564 47.9299H55.266V49.9328C55.9007 49.2955 56.3994 48.6582 56.8528 48.0209C57.5328 46.9739 58.1222 45.6993 58.5756 44.1971L60.9785 45.153C60.5704 46.1545 60.2077 47.0194 59.8904 47.7478H65.7389V50.3425H58.3942C57.8049 51.1619 57.0341 52.0723 55.9914 53.0283L53.9512 51.2074C54.2686 50.9343 54.5859 50.6612 54.8579 50.388H50.5056V50.4335C50.5056 51.3895 50.5056 52.2544 50.4602 53.0738H54.994C54.8126 59.9931 54.6313 63.7714 54.4046 64.3632C54.2232 65.2281 53.9512 65.8199 53.5432 66.184C53.2712 66.6392 52.6818 66.8669 51.8657 66.9579C50.959 66.9579 50.1882 66.9124 49.5535 66.8213L49.1001 64.2721C50.4602 64.4087 51.2763 64.4542 51.503 64.4542C51.775 64.4542 51.9564 64.2266 52.047 63.7714C52.2284 63.4527 52.3644 60.7214 52.4097 55.5775H50.3242C50.2336 57.0797 50.0522 58.3543 49.8709 59.5379C49.4628 61.905 48.6921 64.3176 47.468 66.7758L45.2465 64.8639C46.2439 62.952 46.9239 60.9035 47.3773 58.673C47.74 56.8976 47.9214 54.1663 47.9214 50.5246V50.4791H45.9265V48.0209H49.3268C48.9188 46.9284 48.4654 45.9269 48.012 44.971L50.7776 44.4702ZM56.7621 52.5275H64.9681V54.4394C64.1067 55.5775 63.1093 56.7611 61.9305 57.8991V58.5364H66.0109V60.9946H61.9305V64.8639C61.9305 65.5467 61.7492 66.1385 61.4318 66.6392C60.9785 67.14 60.4344 67.3676 59.7997 67.3676H57.0795L56.3541 64.6818C57.2608 64.8184 57.9862 64.9094 58.5756 64.9094C59.1196 64.9094 59.3463 64.6363 59.3463 64.1356V60.9946H55.946V58.5364H59.3463V57.5349C60.1624 56.8976 60.9785 55.9872 61.8399 54.8491H56.8074V52.5275H56.7621Z" fill="#231815"/>
<path d="M80.0201 51.1164H98.6083V53.5746H92.3971C91.6264 54.2119 90.8556 54.8037 89.9942 55.3044C91.037 56.579 91.8077 57.8991 92.2611 59.2193C94.4373 58.2633 96.5228 56.8066 98.4723 54.9402L100.603 57.0342C99.379 58.1267 98.0642 59.1282 96.6588 59.9476C97.3389 61.4953 98.1096 62.952 99.0617 64.2266C100.014 65.4557 101.283 66.8214 102.915 68.2781L100.966 70.7362C99.107 68.9609 97.6109 67.1855 96.4775 65.4102C95.6614 64.1811 94.936 62.7244 94.3013 61.1312C93.8932 61.3588 93.4399 61.5409 92.9865 61.6774C93.2585 62.952 93.3945 64.1811 93.3945 65.4557C93.3945 67.7318 93.0318 69.3706 92.3518 70.3265C91.6717 71.3735 89.5862 71.8743 86.0499 71.8743L85.0978 68.9609C85.1885 69.0519 85.7325 69.0975 86.73 69.0975C88.3621 69.0975 89.3595 68.9154 89.7222 68.5057C90.2663 67.9594 90.4929 66.9124 90.4929 65.4102C90.4929 65.0005 90.4476 64.5453 90.4023 64.1356C88.7248 65.4557 87.2287 66.4572 85.8232 67.14C83.647 68.2781 80.9268 69.4161 77.6172 70.4631L76.1211 67.8684C79.3853 67.0035 82.1962 65.9565 84.6445 64.7729C86.6393 63.7714 88.4074 62.5879 89.9036 61.2677C89.8582 61.0401 89.7675 60.8125 89.7222 60.5849C89.6315 60.3118 89.5409 60.0386 89.4502 59.7655C87.8181 60.9491 86.3673 61.814 85.0978 62.3603C83.1937 63.2707 80.7455 64.1356 77.8439 64.955L76.3931 62.4513C79.2493 61.7685 81.7882 60.9946 83.9191 60.0387C85.5965 59.3103 87.0473 58.4909 88.3621 57.4894C88.1354 57.1253 87.9087 56.7611 87.682 56.4424C85.0978 57.5805 82.0602 58.5364 78.6599 59.3103L77.0731 56.8521C80.7908 56.1693 83.6924 55.441 85.7779 54.6671C86.73 54.3484 87.5914 53.9843 88.3621 53.5746H80.0201V51.1164ZM89.6315 44.3792C89.9942 45.062 90.3569 45.7904 90.6743 46.6098H102.19V52.7097H99.515V49.2045H79.1133V52.7097H76.4384V46.6098H87.5007C87.1833 46.018 86.8206 45.4262 86.4126 44.8799L89.6315 44.3792Z" fill="#231815"/>
<path d="M158 3L154.736 29.9943H127.851L127.805 29.9488L139.049 7.73425C140.5 4.82087 143.447 3 146.711 3H158Z" fill="#EA5623"/>
<path d="M149.386 73.6496H105.681L127.76 29.9943H127.851L136.102 46.4732L149.386 73.6496Z" fill="#084A95"/>
<path d="M149.386 73.6496L136.102 46.4732L127.851 29.9943H154.736L149.386 73.6496Z" fill="#3793D1"/>
</svg>
