<svg xmlns="http://www.w3.org/2000/svg" viewBox="0 0 450 241.37"><path d="M161.94 169.79l-2.07-17.59c-.09-.84-.79-1.16-1.58-1.16h-4.23l.83 6.36-6.68 12.39-2.49-17.59c-.09-.84-.79-1.16-1.56-1.16h-4.43l3.91 26.81h3l8.85-16 2.07 16h3l15.2-26.85h-3.22zM35.3 177.85h6.16l5.73-26.81h-6.18l-5.71 26.81zM211.51 151h-22.63c.37 1.84 1.14 2.63 3.41 2.63h11.42l-18.12 19.17c-1.56 1.65-2.58 2.76-2.67 5h23.55c-.36-1.83-1.14-2.61-3.36-2.62h-11.94l17.43-18.89c2.22-2.48 2.72-3.78 2.91-5.3M63.77 151H52.06l1.2 2.33-5.2 24.48h6.17l5.16-24.32h1.89c3.56 0 5.07 2.17 4.8 5.4-.23 2.89-2.27 6-8.48 6.71l5 9.27c1.3 2.35 1.89 2.94 5.3 2.94h3.27l-6.9-11.37c3.68-.6 7.74-3 8.19-7.38.56-5-2.9-8.06-8.66-8.06m-39.51-2.3L5.07 177.86h3.45l4.8-7.15h11.33l.51 3.32c.37 2.62 1 3.83 3.92 3.83H32l-4.64-29.16zM15.16 168l7.46-11.15L24.29 168zm91.38 1.61l-8.7-15.71c-1.25-2.26-1.9-2.86-4.56-2.86h-3.83l1.62 3.13-5 23.68h3.23l4.19-19.71 9.59 16.77c1 1.89 2 2.94 5 2.94l5.7-26.81h-3.22zm7.2 8.24h19.63c-.37-1.84-1.15-2.61-3.42-2.61h-9.43l2.11-9.87h9.72l.56-2.66h-9.77l1.94-9h9c2.26 0 3-.79 3.41-2.63h-18zm215.78-8.24l-8.7-15.71c-1.25-2.26-1.89-2.86-4.57-2.86h-3.82l1.61 3.13-5 23.68h3.24l4.2-19.71 9.52 16.77c1.07 1.89 2 2.94 5 2.94l5.71-26.85h-3.22zM381.6 171c3.79 8.3 10.06 13.3 17.72 13.3 7.22 0 12.12-5.77 12.12-11.28 0-6.24-4.54-10.34-9.92-10.34-5.73 0-6.93 4.55-6.93 5.69a5 5 0 004.73 5.06c4.19 0 4.5-3.5 4.5-3.5a3.64 3.64 0 011.3 3.09c0 2.15-1.75 4.89-5.8 4.89-3.23 0-8-1.78-11.24-9-3.85-8.5-4.13-11-4.13-11h50.73l2.89-6.77h-63.79s3.35 10.19 7.82 19.93m-150.69-17.4c2.25 0 3.05-.78 3.41-2.63h-18l-5.71 26.81h19.62c-.37-1.84-1.15-2.62-3.41-2.62h-9.44l2.12-9.86h9.72l.55-2.66H220l1.94-9zm159.22-12.96a117.9 117.9 0 0112.36-13.92c2.12-2.08 7.67-7.33 13.31-7.33 3.71 0 6.58 2.43 6.58 5.74a4.36 4.36 0 01-2.65 4.21c.27-1.39-.57-5.22-4.08-5.22a5 5 0 00-5.14 4.87c0 4 3.45 6.9 7.5 6.9 7.75 0 11.35-5.8 11.35-11.41s-5.19-11.75-13.56-11.75c-7.71 0-14.84 5.71-18.89 9.89a302.66 302.66 0 00-22 24.77h64.22l2.9-6.75zM249 151l-17.19 26.82h3.45l4.57-7.15h10.27l.69 3.32c.55 2.6 1.16 3.83 4.06 3.83h2.94L252 151zm-7.47 17l6-9.35 2 9.35zm55.33-17l-17.19 26.82h3.45l4.56-7.15H298l.7 3.32c.55 2.6 1.14 3.83 4.05 3.83h2.95L299.94 151zm-7.42 17l6-9.35 2 9.35zm-14.73 7.23h-6.91L273 151h-6.18l-5.71 26.81h17.05c-.36-1.84-1.15-2.62-3.41-2.62M352 151h-10.38l1.19 2.32-5.22 24.5h9.35c8.38 0 16.22-4.93 17.55-13.41S360.12 151 352 151m6.14 13.41c-1 6.92-6.32 10.92-12.17 10.92h-1.7l4.65-21.8h1.7c5.85 0 8.53 4.06 7.52 10.88" fill="#fff"/><path fill="#4c4948" d="M342.88 239.49h-.2l-5.43-1.87-4.5 3.75 5.06-.56 4.87-1.13.2-.19z"/><path fill="#adaeae" d="M342.68 239.68h.2v-.19l-.2.19z"/><path fill="#fff" d="M226.45 225.43h7.12v-1.12h-8.08v10.31h8.25v-.93h-7.29v-3.94h6.93v-.94h-6.93v-3.38zm27.74-1.12h-1.69l-4.5 9-4.5-9h-1.68v10.31h1.12v-8.82l4.49 8.82h1.13l4.5-8.82v8.82h1.13v-10.31zm11.43 1.12v-1.12h-8.06v10.31h8.25v-.93h-7.12v-3.94h6.75v-.94h-6.75v-3.38h6.93zm15.19-1.12h-1.5l-4.49 9-4.69-9h-1.5v10.31h1.12v-8.82l4.5 8.82h.93l4.51-8.82v8.82h1.12v-10.31zm9.19 0h-5.81v10.31h5.62q3.38 0 3.37-2.81a2.34 2.34 0 00-2.06-2.62 2.22 2.22 0 001.69-2.27c0-1.67-.94-2.61-2.81-2.61m-.19 1.12a1.58 1.58 0 012.06 1.49c-.19 1.32-.94 1.89-2.44 1.89h-4.3v-3.38zm.19 4.31a1.88 1.88 0 012.06 2.07c0 1.31-.75 1.87-2.44 1.87h-4.49v-3.94zm14.44-4.31v-1.12h-8.06v10.31h8.24v-.93h-7.31v-3.94h6.93v-.94h-6.93v-3.38h7.13z"/><path fill="#dadadb" d="M332.56 224.87l-5.25.19 5.06 3.01 5.26-2.63-5.07-.57z"/><path fill="#4c4948" d="M332.38 228.06l-.2 6 3.01-4.13 2.44-4.5-5.25 2.63z"/><path fill="#adaeae" d="M332.18 234.06l.19-5.99-5.06-3.01 2.25 4.69 2.62 4.31z"/><path fill="#dadadb" d="M346.06 220.55v5.06l.75 5.07 2.62-5.25-3.37-4.88z"/><path fill="#4c4948" d="M355.25 225.06l-5.82.37-2.62 5.25 4.31-2.62 4.13-3z"/><path fill="#adaeae" d="M349.43 225.43l5.82-.37-4.5-2.62-4.7-1.89 3.38 4.88zm-5.24-.75l-1.13-5.06-1.69-4.68-1.5 5.61 4.32 4.13z"/><path fill="#4c4948" d="M339.12 223.74l5.07.94-4.32-4.13-5.63 1.7 4.88 1.49z"/><path fill="#dadadb" d="M341.37 214.93l-3.94 3.38-3.18 3.94 5.62-1.7 1.5-5.62z"/><path fill="#adaeae" d="M351.12 236.31l.19-5.06-3.56 4.68 2.06 5.44 1.31-5.06z"/><path fill="#dadadb" d="M347.75 235.93l3.56-4.68-4.88 1.49-4.5 2.25 5.82.94z"/><path fill="#4c4948" d="M341.93 234.99l3.76 3.56 4.12 2.82-2.06-5.44-5.82-.94z"/><path fill="#adaeae" d="M342.68 239.49l-2.81-4.12-3.75-3.56 1.13 5.81 5.43 1.87z"/><path fill="#dadadb" d="M332.75 241.37l4.5-3.75-1.13-5.81-3.37 9.56z"/><path d="M89 224.31h-1.31L83 234.62h1.12l1.49-3h5.45l1.3 3h1.14zm1.5 6.37H86l2.24-5.25zm17.81-3.36h1c-.2-2.07-1.51-3.2-4.32-3.2s-4.13.93-4.13 3c0 1.31 1.31 2.24 3.75 2.81 2.64.19 3.75.94 3.94 1.88-.19 1.5-1.13 2.06-3.19 2.06-2.25 0-3.56-.75-3.56-2.62h-1.12c.18 2.44 1.69 3.74 4.68 3.74 2.81 0 4.32-1.12 4.32-3.18 0-1.51-1.32-2.45-3.76-2.81-2.61-.38-3.75-1.13-3.75-2.08 0-1.3.94-1.87 2.82-1.87 2.06 0 3.18.75 3.37 2.27m8.02-1.89h3.93v-1.12h-9v1.12h3.94v9.19h1.13v-9.19zm10.69-1.12h-1.32l-4.68 10.31h1.12l1.5-3h5.44l1.31 3h1.12zm1.5 6.37h-4.5l2.25-5.25zm27.74-6.37H155l-4.69 10.31h1.13l1.31-3h5.45l1.49 3h1.13zm1.5 6.37h-4.5l2.25-5.25zm6.38-6.37h-1.13v10.31h7.69v-.93h-6.56v-9.38zm9.94 0H173v10.31h7.69v-.93h-6.56v-9.38zm8.99 0h.94v10.31h-.94zm39 3.56c-.18-2.44-1.86-3.75-4.87-3.75a5.76 5.76 0 00-4.31 1.88 5.43 5.43 0 00-1.32 3.55c0 3.57 1.88 5.26 5.63 5.44 3 0 4.69-1.49 5.07-4.12h-1.13c-.36 2.06-1.69 3-3.94 3-3 0-4.31-1.5-4.31-4.32 0-3 1.3-4.49 4.31-4.49 2.25 0 3.58.94 3.94 2.81zm-21.55-3.56h-1.32v10.31h1.13V226l7.12 8.62h1.32v-10.31h-1.13v8.81l-7.12-8.81zm-8.25 0h-1.13l-4.69 10.31h1.13l1.31-3h5.44l1.3 3H197zm1.68 6.37h-4.5l2.25-5.25z" fill="#fff"/><path d="M359.18 221.87v2.44h.19v-2.44h1.13v-.19h-2.44v.19h1.12zm4.5-.19l-1.12 2.26-1.13-2.26h-.37v2.63h.37v-2.26l.94 2.26h.38l1.13-2.26v2.26h.18v-2.63h-.38z"/><path fill="#fff" d="M252.49 224.31l-4.49 9-4.5-9h-1.68v10.31h1.13v-8.82l4.49 8.82h1.12l4.5-8.82v8.82h1.13v-10.31h-1.7zm16.14 0v10.31h1.12v-8.82l4.49 8.82h.94l4.51-8.82v8.82h1.12v-10.31h-1.5l-4.5 9-4.68-9h-1.5zm-3.01 0h-8.06v10.31h8.25v-.93h-7.12v-3.94h6.75v-.94h-6.75v-3.38h6.93v-1.12zm38.82 0h-8.06v10.31h8.24v-.93h-7.31v-3.94h6.93v-.94h-6.93v-3.38h7.13v-1.12zm11.81 8.24c0-1.87-.56-2.8-1.69-2.8a2.47 2.47 0 001.87-2.63c0-1.87-1.12-2.81-3.18-2.81h-5.62v10.31h.93v-4.5h4.31a2.18 2.18 0 012.44 2.43 7 7 0 00.19 2.07h1.12zm-7.69-3.36v-3.76h4.69c1.5-.18 2.06.37 2.06 1.69a1.88 1.88 0 01-2.06 2.07zm-17.44 0a2.21 2.21 0 001.69-2.27c0-1.67-.94-2.61-2.81-2.61h-5.81v10.31h5.62c2.25 0 3.37-.93 3.37-2.81a2.34 2.34 0 00-2.06-2.62m-6-3.76h4.68a1.58 1.58 0 012.06 1.49c-.19 1.32-.94 1.89-2.44 1.89h-4.3zm4.49 8.26h-4.49v-3.94H290a1.87 1.87 0 012.06 2.06c0 1.31-.74 1.88-2.44 1.88m-180.36-6.37c-.2-2.07-1.51-3.2-4.32-3.2s-4.13.93-4.13 3c0 1.31 1.31 2.24 3.76 2.81 2.62.19 3.75.94 3.93 1.88-.18 1.5-1.13 2.06-3.19 2.06-2.24 0-3.56-.75-3.56-2.62h-1.13c.19 2.44 1.7 3.74 4.69 3.74 2.81 0 4.32-1.12 4.32-3.18 0-1.51-1.31-2.45-3.76-2.81-2.61-.38-3.75-1.13-3.75-2.08 0-1.3.95-1.87 2.82-1.87 2.06 0 3.18.75 3.38 2.27h.94m2.05-1.89h3.94v9.19h1.13v-9.19h3.93v-1.12h-9v1.12zm122.25 0v-1.12h-8.07v10.31h8.25v-.93h-7.29v-3.94h6.93v-.94h-6.93v-3.38h7.11zm-90.74 7.12c0-1.87-.76-2.8-1.69-2.8a2.47 2.47 0 001.87-2.63q0-2.81-3.38-2.81h-5.43v10.31h.94v-4.5h4.12c1.68 0 2.44.75 2.44 2.43l.37 2.07h1.13a3.81 3.81 0 01-.37-2.07m-3.2-3.36h-4.49v-3.76h4.68c1.32-.18 2.06.37 2.06 1.69s-.74 2.07-2.25 2.07m23.44-4.88v10.31h7.68v-.93h-6.55v-9.38h-1.13zm9.94 0v10.31h7.69v-.93h-6.57v-9.38H173zm10.12 0h.94v10.31h-.94zm39 3.56c-.18-2.44-1.86-3.75-4.87-3.75a5.76 5.76 0 00-4.31 1.88 5.43 5.43 0 00-1.32 3.55c0 3.57 1.88 5.26 5.63 5.44 3 0 4.69-1.49 5.07-4.12h-1.13c-.36 2.06-1.69 3-3.94 3-3 0-4.31-1.5-4.31-4.32 0-3 1.3-4.49 4.31-4.49 2.25 0 3.58.94 3.94 2.81h.93m-14.43-3.56v8.81l-7.13-8.81h-1.31v10.31h1.13V226l7.12 8.62h1.31v-10.31h-1.12zm-15.38 0h-1.12l-4.69 10.31h1.13l1.31-3h5.44l1.3 3H197zm-2.81 6.37l2.24-5.25 2.26 5.25zm-33.19-6.37H155l-4.68 10.31h1.11l1.32-3h5.44l1.5 3h1.13zm-3 6.37l2.26-5.25 2.24 5.25zm-26.25-6.37h-1.31l-4.68 10.31h1.12l1.5-3h5.44l1.31 3h1.12zm-3 6.37l2.25-5.25 2.24 5.25zM89 224.31h-1.31L83 234.62h1.13l1.5-3h5.44l1.31 3h1.12zm-3 6.37l2.25-5.25 2.25 5.25z"/><path fill="none" stroke="#fff" stroke-miterlimit="10" stroke-width="1.611" d="M0 202h450"/><path d="M111.76 44.07h17.55l-.63 5.12h-6l-3.22 23.62h-5.36l3.23-23.62h-6.23zm17.85 7.48h4.65l-.37 2.89c1.39-2.29 3.07-3.43 5-3.43a3.33 3.33 0 011.47.37l-1.91 4.74a3 3 0 00-.87-.21 3.36 3.36 0 00-2.73 1.77q-1.2 1.77-1.89 7.14l-1 8h-5.24zm29.62 0h5.22l-3 21.26h-5.16l.31-2.29a11.49 11.49 0 01-3.18 2.21 8.4 8.4 0 01-3.32.62 8.18 8.18 0 01-6.72-3.1 11.22 11.22 0 01-2.45-7.25 12 12 0 011.6-6 11.69 11.69 0 014.28-4.43 10.9 10.9 0 015.63-1.57 7.51 7.51 0 013.63.9 7.31 7.31 0 012.75 2.64zm-7.83 17.16a6.46 6.46 0 003.36-.86 6.72 6.72 0 002.41-2.69 8 8 0 001-3.75 5.62 5.62 0 00-1.47-4.06 5.05 5.05 0 00-3.86-1.54 6.32 6.32 0 00-4.74 2 7.43 7.43 0 00-1.94 5.3 5.54 5.54 0 001.47 4 5 5 0 003.77 1.6zm15.92-17.16h5.11l3.32 11.82 6.82-11.82h5.68l-12.33 21.26h-2.53zm38.14 15.04l4.59 2.41a10.7 10.7 0 01-4.05 3.18 13.42 13.42 0 01-5.66 1.17 10.53 10.53 0 01-7.67-2.73 9.69 9.69 0 01-2.8-7.27 12 12 0 013.51-8.76A11.39 11.39 0 01201.8 51a10.74 10.74 0 015.33 1.3 9.45 9.45 0 013.68 3.81 11.28 11.28 0 011.35 5.44 14 14 0 01-.2 2.14H195a4.87 4.87 0 001.45 3.53 5.28 5.28 0 003.8 1.32 7.71 7.71 0 005.21-1.95zm1.33-6.71a5.53 5.53 0 00-2-3 5.35 5.35 0 00-3.3-1 6.07 6.07 0 00-3.46 1 6.44 6.44 0 00-2.34 2.94zm11.76-16.53h5.2l-4 29.46h-5.21zm22.11 23.24l4.59 2.41a10.7 10.7 0 01-4.09 3.21 13.42 13.42 0 01-5.66 1.17 10.49 10.49 0 01-7.66-2.73 9.69 9.69 0 01-2.84-7.3 12 12 0 013.51-8.76A11.41 11.41 0 01237 51a10.72 10.72 0 015.32 1.3 9.39 9.39 0 013.68 3.82 11.28 11.28 0 011.35 5.44 13.81 13.81 0 01-.19 2.14h-17a4.91 4.91 0 001.45 3.53 5.28 5.28 0 003.8 1.32 7.69 7.69 0 005.25-1.96zm1.34-6.71a5.46 5.46 0 00-2-3 5.4 5.4 0 00-3.31-1 6 6 0 00-3.45 1 6.53 6.53 0 00-2.35 2.94zm10-8.33h4.65l-.37 2.89c1.39-2.29 3.07-3.43 5-3.43a3.33 3.33 0 011.47.37l-1.91 4.74a3 3 0 00-.87-.21 3.36 3.36 0 00-2.73 1.77q-1.2 1.77-1.89 7.14l-1 8h-5.24zM116.27 28.32h-.5v-.54h-3.14v-.49h3.14v-.6h.5zm4.79 4.38h-.5v-1h-3.86c-.16.23-.33.47-.53.71h3.46v.48c-1.14 1.33-3.09 2.23-5.83 2.69l-.29-.47a17 17 0 002.55-.58 6.93 6.93 0 00-1.06-1.15 7.63 7.63 0 01-1.49.71l-.3-.43a5.82 5.82 0 002.89-2h-2.61v1h-.52v-1.5h8.12zm-.57-2.21h-6.95v-1.83h6.95zM115.7 30v-.86H114V30zm3.21 2.87h-3.24l-.27.22a10.48 10.48 0 011.17 1.21 6.25 6.25 0 002.34-1.43zM117.83 30v-.86h-1.63V30zm3.56-2.22h-3.1v.54h-.5v-1.63h.5v.6h3.1zM120 30v-.86h-1.62V30zm17.55.38l-.31.43a9.2 9.2 0 00-1.5-1.35v2.66h-.51v-2.69a9 9 0 01-1.58 2l-.36-.37a9.7 9.7 0 001.89-2.46h-1.78v-.48h1.83v-1.47h.51v1.43h1.6v.48h-1.6v.31a10.15 10.15 0 011.81 1.51zM135.11 33a7.58 7.58 0 01-1.34 2.17l-.4-.35a8 8 0 001.27-2.06zm5 1.08a2.13 2.13 0 01-.17.86.79.79 0 01-.49.46 6.21 6.21 0 01-1.35.09 6 6 0 01-1.84-.16.61.61 0 01-.31-.59v-2.33h.52v2.17a.29.29 0 00.16.3A7.53 7.53 0 00138 35a5.24 5.24 0 001.24-.07c.1 0 .18-.18.25-.42a2.64 2.64 0 00.09-.62zm-1.27-.18l-.44.3a8.73 8.73 0 00-1-1.51l.41-.32a7.71 7.71 0 01.99 1.49zm2.92-1.79h-3.84v-4.98h3.84zm-.51-3.48v-1h-2.83v1zm0 1.5v-1h-2.83v1zm0 1.51v-1h-2.83v1zm.75 3.27l-.45.3a13 13 0 00-1.38-2.21l.44-.3a17.76 17.76 0 011.39 2.17zm20.82-2.78l-.14.45h-3.57a8.63 8.63 0 01-2.46-.25 3.57 3.57 0 01-1.11-.58 7.1 7.1 0 01-1.22 1l-.32-.39a4.77 4.77 0 001.84-1.84h-1.62V30a15.9 15.9 0 001.47-1.23h-1.59v-.48h2.22v.48A11.53 11.53 0 01155 30h1.37v.47a3.07 3.07 0 01-.53.93 2.87 2.87 0 001 .52 9.81 9.81 0 002.44.2zm0 1.56h-1.92v1a.7.7 0 01-.24.58 1.64 1.64 0 01-.95.19H159l-.16-.49h1.27c.18 0 .27-.09.27-.23v-1.05h-6.33v-.5h6.33v-.34h.51v.34h1.89zm-6.72-6l-.36.33A10 10 0 00154.3 27l.38-.32a7.66 7.66 0 011.39 1.04zm1.78 7l-.32.4a8.34 8.34 0 00-1.63-.77l.32-.4a8.23 8.23 0 011.6.8zm4.92-6.82H160c-.12.24-.22.42-.29.53h2.53v3.1h-5.11v-3.1h2a3.55 3.55 0 00.31-.53h-2.91v-.46h6.2zm-4-.83l-.43.27a4 4 0 00-.68-.45l.43-.27a2.44 2.44 0 01.62.48zm3 2.23v-.46h-4.07v.46zm0 .91v-.48h-4.07v.51zm0 .89v-.52h-4.07v.52zm0-4.24a4.67 4.67 0 01-.74.44l-.43-.3a2.77 2.77 0 00.75-.41zm17.28 4.32c-.18 0-.4.08-.64.11v3.63a.6.6 0 01-.24.49 2.33 2.33 0 01-1.31.14l-.17-.54h.67a1 1 0 00.45-.06.17.17 0 00.09-.16v-3.42c-.55.1-1.2.18-2 .25a8.92 8.92 0 01-.88 3.93l-.42-.3a8.54 8.54 0 00.79-3.57l-.73.06v-.5l.79-.07v-3.27h.88a8.24 8.24 0 00.47-1.15l.52.1a6.52 6.52 0 01-.42 1.05h1.5v2.9a4.63 4.63 0 00.64-.12zm-1.15-.3v-2.47H176v2.7zm-.55 2.78l-.48.19a7.83 7.83 0 00-.49-1.59l.48-.2a8.42 8.42 0 01.49 1.6zm0-3.37l-.48.16a6.88 6.88 0 00-.41-1.46l.46-.19a8 8 0 01.46 1.49zm6.05 3.06a7.48 7.48 0 01-.1 1.42 1.06 1.06 0 01-.26.62 1.07 1.07 0 01-.61.12 1.2 1.2 0 01-.72-.15.56.56 0 01-.18-.47v-4.28h-1.44v1.08a7.14 7.14 0 01-1 3.91l-.46-.29a6.26 6.26 0 001-3.64v-1.56h2.44v4.68a.19.19 0 00.08.17 1.57 1.57 0 00.42 0 .25.25 0 00.19-.09 1.59 1.59 0 00.13-.61 10.21 10.21 0 000-1.13zm-.07-4.46h-4.54v-.51h1.94a7.15 7.15 0 00-.56-1.51l.5-.14a9.8 9.8 0 01.59 1.65h2.07zm20.78 5.74l-.35.46a7.52 7.52 0 01-2.86-2.41 4.79 4.79 0 01.07.87c0 .84-.13 1.38-.4 1.61a2 2 0 01-1.31.35h-.51l-.17-.52a6.5 6.5 0 00.66 0 1.61 1.61 0 00.81-.13.78.78 0 00.3-.38 2.91 2.91 0 00.11-1 4.76 4.76 0 00-.07-.84 14.76 14.76 0 01-4.71 2.39l-.28-.46a12.34 12.34 0 004.84-2.51 2.74 2.74 0 00-.27-.77 12.13 12.13 0 01-4 1.95l-.29-.5a10.23 10.23 0 004.11-1.86 3.58 3.58 0 00-.41-.6 13 13 0 01-3.16 1.09l-.28-.48a10.51 10.51 0 004-1.52H197v-.51h5.74v.51h-2a8.77 8.77 0 01-.9.67 6 6 0 01.89 1.69 8.27 8.27 0 002.3-1.64l.37.37a8.29 8.29 0 01-2.22 1.63 6.51 6.51 0 002.96 2.54zm-.34-5.36h-.53V28h-6.9v1.26h-.53v-1.79h3.84a4.3 4.3 0 00-.3-.73l.52-.17a9.1 9.1 0 01.35.9h3.55zm30.25 65.04a18.24 18.24 0 004.9-3.59l-.82-.81a18.33 18.33 0 01-5.08 3.62 13.22 13.22 0 00-2-3.74 13.76 13.76 0 002-1.47h4.32l.14-1.13h-12.62l-.13 1.13h6.6a23 23 0 01-8.81 3.34l.62 1.08a29.81 29.81 0 007-2.42 10.56 10.56 0 01.89 1.32 22.64 22.64 0 01-9.06 4.12l.66 1.1a27.05 27.05 0 008.92-4.17 6.93 6.93 0 01.6 1.69q-3.58 3.33-10.69 5.54l.63 1a32.54 32.54 0 0010.39-5.25 11.49 11.49 0 01.14 1.84 6.38 6.38 0 01-.23 2.12 1.8 1.8 0 01-.67.84 3.67 3.67 0 01-1.78.28 11.38 11.38 0 01-1.47-.09l-.14 1.15H230a4.38 4.38 0 002.9-.76c.59-.51.89-1.7.89-3.55a10.66 10.66 0 00-.17-1.93 16.73 16.73 0 006.31 5.31l.78-1a14.43 14.43 0 01-6.66-5.57z" fill="#fff"/><path fill="#fff" d="M223.86 85.29h15.23l-.33 2.79h1.15l.48-3.91h-8.18l-.54-1.06-.61-1.2h-.75l.15 1.2.13 1.06h-7.75l-.47 3.91h1.16l.33-2.79zm-12.25 12.19a.41.41 0 01-.28.17h-1.58l-.15 1.15h1.08a3.05 3.05 0 001.75-.35 1.32 1.32 0 00.47-1.15v-3.4h3.1l.14-1.1h-3.24v-1c.57-.54 1.34-1.34 2.3-2.38l.13-1.07h-5.82l-.13 1.07h4.36q-.93 1-2 2v1.29h-3l-.12 1.1h3.08v3.21a.52.52 0 01-.09.46zm-13.18-11.61h2.11l-1.07-2.11-.66-1.3h-.8l.16 1.3.26 2.11z"/><path d="M203 99.8a7.34 7.34 0 01-2.78-1.8 18.11 18.11 0 001.06-4.08l.14-1.08h-3.08l2.36-4.63.13-1.09h-4.12l-.13 1.09h2.66l-2.36 4.62-.13 1.08h3.4a12.07 12.07 0 01-3.61 7.33l.87.67a12.32 12.32 0 002.38-2.91 7.38 7.38 0 002.89 1.8 12.25 12.25 0 003.37.65c1.11 0 3 .08 5.56.08h4.44l.15-1.19q-3.3.1-8.68.11a13.32 13.32 0 01-4.52-.65z" fill="#fff"/><path d="M202.25 98.8h1.13l1.07-8.86h2.43c0 1-.07 2.34-.2 4.17a18.29 18.29 0 01-.32 3 .84.84 0 01-.83.56h-.9l-.13 1.11a4.17 4.17 0 002-.22 1.77 1.77 0 00.76-.72 14.75 14.75 0 00.44-3.2c.16-1.85.24-3.8.26-5.87h-3.38l.3-2.5h3.61l.14-1.14h-2.53l-.86-1.68-.61-1.2h-.74l.14 1.2.21 1.68H202l-.14 1.14h1.86zm6.23-10.63h1.24l1.01-1.99h5.22l.14-1.12h-4.2l.19-1.57.15-1.2h-.75l-.61 1.2-.8 1.58-.02.02-1.57 3.08zm-28.77-1.56l.14-1.17h-2.57l-1-2-.62-1.2h-.74l.15 1.2.24 2h-3.21l-.1 1.17h1.87L172 101.86h1.22l1.33-10.78h3.76q-.1 7-.31 8.3c-.14.89-.59 1.33-1.33 1.33h-1.37l-.14 1.08a8.7 8.7 0 002.83-.18 2 2 0 00.88-1 17.54 17.54 0 00.4-3.64q.16-2.94.16-7h-4.74l.41-3.33zm11.39-.32l.14-1.14h-7.33l.19-1.5.17-1.36h-.85l-.69 1.36-1 2c-.86 1.7-1.86 3.51-1.86 3.51h1.33l1.45-2.87zm-8.45 14v-9.64a41.25 41.25 0 007.24-2l-.64-1a33.37 33.37 0 01-7.73 2.13v12.25a41.63 41.63 0 005-1.92l-.27-1.13a31.58 31.58 0 01-3.6 1.31z" fill="#fff"/><path d="M187.66 95.66a18.29 18.29 0 003.48-3.34l-.8-.84a19.83 19.83 0 01-3 3.09 20.71 20.71 0 01-.62-3.36l-1.13.31q.82 6.77 5 10.49l.94-.85a13.76 13.76 0 01-3.87-5.5z" fill="#fff"/><path d="M334.79 0l-5.29 43.08h-43.12l-.05-.11 18-35.44A13.77 13.77 0 01316.6 0z" fill="#e95513"/><path fill="#1d2087" d="M320.94 112.8h-70.08l35.41-69.72h.11l13.27 26.33 21.29 43.39z"/><path fill="#040000" d="M286.33 42.97l-.06.11"/><path fill="#009fe8" d="M320.94 112.8l-21.29-43.39-13.27-26.33h43.12l-8.56 69.72z"/></svg>