<svg width="158" height="80" viewBox="0 0 158 80" fill="none" xmlns="http://www.w3.org/2000/svg">
<g clip-path="url(#clip0_302_2)">
<path d="M144.645 3.75525C141.397 3.75525 138.413 5.59842 136.921 8.49482L125.599 30.7884L125.642 30.8322H125.599L103.305 74.7171H147.366L152.763 30.8322L156.099 3.71136H144.645V3.75525Z" fill="white"/>
<path fill-rule="evenodd" clip-rule="evenodd" d="M144.222 2.05255C140.49 2.20573 137.116 4.37905 135.4 7.7111L135.395 7.71989L124.073 30.0134C124.033 30.0921 123.999 30.1727 123.972 30.2546L101.779 73.9421C101.51 74.4726 101.535 75.105 101.846 75.6122C102.158 76.1194 102.71 76.4285 103.305 76.4285H147.366C148.23 76.4285 148.959 75.784 149.064 74.9261L154.462 31.0412L154.462 31.0411L157.797 3.92027C157.857 3.43365 157.705 2.94474 157.38 2.57751C157.056 2.21028 156.589 2 156.099 2H144.645C144.499 2 144.357 2.01824 144.222 2.05255ZM126.968 31.9144L106.094 73.0058H145.852L151.065 30.6234L151.065 30.6233L154.164 5.42276H145.031C144.907 5.45147 144.778 5.46664 144.645 5.46664C142.049 5.46664 139.648 6.9415 138.444 9.27469C138.444 9.27598 138.443 9.27728 138.442 9.27857L127.318 31.183C127.296 31.2859 127.265 31.3877 127.224 31.4871C127.159 31.6439 127.072 31.7872 126.968 31.9144Z" fill="white"/>
<path d="M153.158 29.1207L156.274 3.75525H146.225C142.275 3.75525 138.676 5.94949 136.921 9.46029L126.959 29.0768H153.158V29.1207Z" fill="#EA5623"/>
<path d="M133.41 47.2013L125.599 31.71L104.402 73.4884H146.312L133.41 47.2013Z" fill="#084A95"/>
<path d="M128.407 31.6661L135.692 46.1042L148.024 71.2064L152.851 31.6661H128.407Z" fill="#3793D1"/>
<path d="M0.526619 13.1467H14.5698L14.0871 17.228H9.25971L6.67051 36.1424H2.36979L4.95899 17.228H0L0.526619 13.1467Z" fill="white"/>
<path d="M14.8331 19.115H18.5633L18.2561 21.4409C19.3532 19.5977 20.7137 18.6761 22.2935 18.6761C22.6885 18.6761 23.0396 18.7639 23.4784 18.9833L21.9425 22.7574C21.6353 22.6258 21.372 22.5819 21.2403 22.5819C20.4065 22.5819 19.7043 23.0646 19.0461 23.9862C18.3878 24.9517 17.905 26.8387 17.5101 29.6913L16.6763 36.0985H12.4633L14.8331 19.115Z" fill="white"/>
<path d="M38.5309 19.115H42.7L40.3302 36.1423H36.205L36.4684 34.2992C35.5468 35.133 34.713 35.7474 33.923 36.0546C33.1331 36.4056 32.2554 36.5373 31.2899 36.5373C29.0518 36.5373 27.2525 35.7035 25.8921 34.0359C24.5755 32.3682 23.9173 30.4373 23.9173 28.2431C23.9173 26.5754 24.3561 24.9517 25.1899 23.4596C26.0237 21.9236 27.1648 20.7826 28.613 19.9049C30.0612 19.0711 31.5532 18.6323 33.1331 18.6323C34.1863 18.6323 35.1518 18.8517 36.0295 19.3344C36.9072 19.8172 37.6532 20.5193 38.2237 21.4409L38.5309 19.115ZM32.2554 32.851C33.2648 32.851 34.1863 32.6315 34.9324 32.1488C35.6784 31.71 36.3367 30.9639 36.8633 29.9985C37.3899 29.033 37.6532 28.0236 37.6532 27.0143C37.6532 25.6538 37.2583 24.6006 36.4684 23.7668C35.6784 22.933 34.6691 22.538 33.3964 22.538C31.9043 22.538 30.6317 23.0646 29.6223 24.1618C28.5691 25.2589 28.0863 26.6632 28.0863 28.4186C28.0863 29.7351 28.4813 30.8323 29.2712 31.6222C30.0173 32.456 31.0266 32.851 32.2554 32.851Z" fill="white"/>
<path d="M44.982 19.115H49.0633L51.7403 28.5941L57.182 19.115H61.7461L51.872 36.1423H49.8533L44.982 19.115Z" fill="white"/>
<path d="M75.5259 31.1395L79.2122 33.0265C78.3784 34.1236 77.2813 34.9574 75.9209 35.5718C74.5604 36.1862 73.0684 36.5373 71.4007 36.5373C68.8115 36.5373 66.7489 35.7913 65.2568 34.3431C63.7648 32.8949 63.0187 30.9639 63.0187 28.5064C63.0187 25.7416 63.9403 23.4157 65.8274 21.4848C67.7144 19.5538 69.9525 18.6323 72.5856 18.6323C74.1655 18.6323 75.6137 18.9833 76.8425 19.6855C78.0712 20.3877 79.0806 21.397 79.7828 22.7136C80.4849 24.0301 80.8799 25.4783 80.8799 27.0582C80.8799 27.5409 80.836 28.1114 80.7043 28.7697H67.1439C67.1878 29.9546 67.5827 30.8762 68.3288 31.5783C69.0748 32.2805 70.0842 32.6315 71.3569 32.6315C72.9367 32.7193 74.2971 32.1927 75.5259 31.1395ZM76.5792 25.7855C76.272 24.7323 75.7453 23.9423 74.9993 23.4157C74.2533 22.8891 73.3756 22.6258 72.3662 22.6258C71.3569 22.6258 70.4353 22.8891 69.6015 23.4596C68.7676 24.0301 68.1533 24.7761 67.7144 25.7855H76.5792Z" fill="white"/>
<path d="M85.9705 12.5322H90.1396L86.936 36.0984H82.7669L85.9705 12.5322Z" fill="white"/>
<path d="M103.7 31.1395L107.386 33.0265C106.553 34.1236 105.455 34.9574 104.095 35.5718C102.735 36.1862 101.242 36.5373 99.5749 36.5373C96.9857 36.5373 94.9231 35.7913 93.431 34.3431C91.9389 32.8949 91.1928 30.9639 91.1928 28.5064C91.1928 25.7416 92.1144 23.4157 94.0015 21.4848C95.8885 19.5538 98.1267 18.6323 100.76 18.6323C102.34 18.6323 103.788 18.9833 105.017 19.6855C106.245 20.3877 107.255 21.397 107.957 22.7136C108.659 24.0301 109.054 25.4783 109.054 27.0582C109.054 27.5409 109.01 28.1114 108.878 28.7697H95.318C95.3619 29.9546 95.7569 30.8762 96.5029 31.5783C97.249 32.2805 98.2583 32.6315 99.531 32.6315C101.067 32.7193 102.471 32.1927 103.7 31.1395ZM104.753 25.7855C104.446 24.7323 103.919 23.9423 103.173 23.4157C102.427 22.8891 101.55 22.6258 100.54 22.6258C99.531 22.6258 98.6094 22.8891 97.7756 23.4596C96.9418 24.0301 96.3274 24.7761 95.8885 25.7855H104.753Z" fill="white"/>
<path d="M112.784 19.115H116.514L116.207 21.4409C117.304 19.5977 118.665 18.6761 120.245 18.6761C120.64 18.6761 120.991 18.7639 121.43 18.9833L119.894 22.7574C119.586 22.6258 119.323 22.5819 119.191 22.5819C118.358 22.5819 117.655 23.0646 116.997 23.9862C116.339 24.9517 115.856 26.8387 115.505 29.6913L114.671 36.0985H110.458L112.784 19.115Z" fill="white"/>
<path d="M6.45108 44.3927C7.5482 45.6215 8.38201 46.6308 8.9964 47.5085L7.37266 48.6495H12.595V51.1949H7.02158C7.02158 52.6431 6.9777 54.0035 6.93381 55.2762H12.1561C12.1561 62.6049 12.0683 66.9495 11.8928 68.31C11.7612 69.4071 11.5417 70.0654 11.1906 70.3726C10.7518 70.8114 10.0058 71.0308 8.86475 71.0308C8.25036 71.0308 7.5482 70.987 6.71439 70.8992L6.23165 68.1344C7.10935 68.2661 7.98705 68.3539 8.86475 68.3539C9.3036 68.3539 9.52302 67.9589 9.56691 67.2129C9.65468 66.2474 9.69856 63.1754 9.69856 57.9531H6.75827C6.62662 59.533 6.45108 60.9373 6.27554 62.1661C5.7928 65.238 4.87122 68.3539 3.55467 71.5136L1.36043 69.6265C2.54532 67.0812 3.37913 64.3603 3.81798 61.42C4.21295 59.138 4.43237 55.7589 4.43237 51.2387H1.79928V48.6934H6.40719C5.88057 47.7718 5.2223 46.7625 4.43237 45.6654L6.45108 44.3927ZM16.2813 44.5244L18.9144 45.5337C18.6072 46.4114 18.3 47.1575 18.0367 47.8157H27.9108V50.2294H16.9835C16.8518 50.4488 16.764 50.6682 16.6763 50.8438C16.0619 52.0726 14.9647 53.5208 13.4288 55.1445L11.1906 53.1697C12.5072 51.8531 13.5604 50.5366 14.3504 49.2639C15.0964 47.9474 15.7547 46.3675 16.2813 44.5244ZM24.7072 51.3265L26.5065 53.7841C24.9705 54.2668 23.3907 54.7057 21.7669 55.1006C22.0741 56.4611 22.3813 57.6898 22.6885 58.8747C24.2245 58.1726 25.5849 57.251 26.8137 56.0661L28.4813 57.9531C26.8137 59.4891 25.1899 60.6301 23.5662 61.4639C23.8295 62.1222 24.0928 62.7366 24.3561 63.2632C25.4094 65.5452 26.8576 67.4762 28.7446 69.0121L26.9892 71.6013C24.8389 69.6265 23.259 67.4762 22.2058 65.1064C20.977 62.4733 20.0115 59.3136 19.2216 55.6711C18.5194 55.8028 17.8173 55.9344 17.159 56.0661V67.3884C18.7827 66.9495 20.3187 66.4668 21.723 65.9841V68.7927C19.2655 69.7143 16.5007 70.5042 13.341 71.2503L12.5072 68.4855C13.2094 68.31 13.8676 68.1783 14.5259 68.0467V54.0913C18.2122 53.433 21.6353 52.5114 24.7072 51.3265Z" fill="white"/>
<path d="M38.4432 51.6776H45.0259V53.6524C44.236 55.2323 43.1827 56.9438 41.9101 58.7431H45.0698V60.4107C44.5871 62.7366 44.1482 64.4481 43.6216 65.5452C43.6216 65.5891 43.5777 65.633 43.5777 65.6769C44.7626 66.774 45.7281 67.4323 46.4741 67.6517C47.1324 67.9589 48.0979 68.1783 49.3705 68.31C50.8626 68.4855 53.759 68.5733 58.1036 68.6172C61.2633 68.6172 63.6331 68.5294 65.213 68.3977L64.7741 71.2064C56.436 71.2064 51.3015 71.1186 49.4583 70.8992C47.7468 70.7236 46.4302 70.4165 45.4648 69.9776C44.5871 69.6704 43.6216 68.9682 42.5684 67.8711C41.9101 69.0999 41.1202 70.3287 40.1108 71.6452L38.2238 69.6704C39.5403 68.0906 40.4619 66.7301 40.9446 65.5452C41.4274 64.7992 41.9101 63.3071 42.4367 61.069H38.7943V59.0064C39.8475 57.7776 40.9446 56.11 42.0856 54.0474H38.4432V51.6776ZM41.0763 45.0949C42.3928 46.4114 43.5338 47.6841 44.4115 49.0006L42.6561 50.756C41.9101 49.5272 40.8568 48.1229 39.4525 46.6747L41.0763 45.0949ZM50.2482 44.656C50.6432 45.6654 51.0381 46.8064 51.4331 48.0351H54.6806V50.01C55.295 49.3956 55.8216 48.7373 56.2166 48.1229C56.8748 47.0697 57.4453 45.8409 57.9281 44.3927L60.3417 45.3143C59.9468 46.2798 59.5957 47.1574 59.2885 47.8596H65.0813V50.4049H57.8403C57.2698 51.1949 56.4799 52.1164 55.4705 53.038L53.4518 51.2387C53.759 50.9754 54.0662 50.7121 54.3295 50.4488H49.9849V50.4927C49.9849 51.4143 49.9849 52.292 49.941 53.0819H54.4173C54.2417 59.928 54.0662 63.6143 53.8468 64.1848C53.6712 65.0186 53.4079 65.633 53.013 65.9841C52.7058 66.4229 52.1792 66.6862 51.3453 66.7301C50.4676 66.7301 49.7216 66.6862 49.0633 66.5985L48.5806 64.097C49.941 64.2287 50.731 64.2726 50.9504 64.2726C51.2576 64.2726 51.4331 64.0531 51.477 63.5704C51.6525 63.2632 51.7842 60.5423 51.872 55.4956H49.8094C49.7216 56.9438 49.5461 58.2603 49.3266 59.4013C48.9317 61.7272 48.1417 64.097 46.9568 66.5107L44.7626 64.6236C45.7281 62.7366 46.4302 60.7179 46.8691 58.5236C47.2202 56.7682 47.3957 54.0913 47.3957 50.4927V50.4488H45.4209V48.0351H48.8C48.4051 46.938 47.9662 45.9726 47.4835 45.051L50.2482 44.656ZM56.1727 52.5553H64.2914V54.4423C63.4576 55.5834 62.4482 56.7244 61.2633 57.8654V58.4798H65.3007V60.8934H61.2633V64.7114C61.2633 65.4136 61.0878 65.9841 60.7806 66.4229C60.2979 66.9057 59.7712 67.1251 59.1569 67.1251H56.436L55.7338 64.492C56.6115 64.6236 57.3576 64.7114 57.972 64.7114C58.4986 64.7114 58.7619 64.4481 58.7619 63.9654V60.8934H55.4266V58.4798H58.7619V57.5582C59.5518 56.9438 60.3856 56.0222 61.2194 54.9251H56.2166V52.5553H56.1727Z" fill="white"/>
<path d="M79.2122 51.151H97.6V53.5646H91.4561C90.7101 54.179 89.9202 54.7495 89.0863 55.2762C90.1396 56.5488 90.8856 57.8215 91.3245 59.138C93.4748 58.1726 95.5374 56.7682 97.4684 54.8812L99.5748 56.9438C98.3461 58.0409 97.0734 59.0064 95.6691 59.7963C96.3274 61.3323 97.1173 62.7366 98.0389 64.0531C98.9605 65.2819 100.233 66.5985 101.857 68.0467L99.9259 70.4603C98.0828 68.7488 96.5907 66.9934 95.4935 65.1941C94.7036 63.9654 93.9576 62.561 93.3432 60.9812C92.9043 61.2006 92.5094 61.3762 92.0266 61.5078C92.2899 62.7366 92.4216 64.0092 92.4216 65.238C92.4216 67.4762 92.0705 69.0999 91.3684 70.0654C90.7101 71.0747 88.6036 71.6013 85.0928 71.6013L84.1274 68.7488C84.2151 68.8366 84.7417 68.8805 85.7511 68.8805C87.331 68.8805 88.3403 68.7049 88.7353 68.31C89.2619 67.7395 89.5252 66.7301 89.5252 65.238C89.5252 64.7992 89.4813 64.4042 89.4374 63.9654C87.7698 65.2819 86.2777 66.2474 84.9173 66.9057C82.7669 68.0467 80.0461 69.1438 76.7986 70.197L75.3065 67.6517C78.554 66.774 81.3187 65.7646 83.7324 64.5798C85.7072 63.6143 87.4187 62.4294 88.9108 61.1128C88.8669 60.8934 88.7792 60.674 88.7353 60.4546C88.6475 60.1913 88.5597 59.928 88.472 59.6646C86.8482 60.8057 85.4 61.6834 84.1274 62.21C82.2403 63.0877 79.8266 63.9654 76.9302 64.7553L75.482 62.2977C78.3345 61.6395 80.7921 60.8495 82.8986 59.928C84.5662 59.2258 86.0144 58.392 87.2871 57.4265C87.0676 57.0754 86.8482 56.7244 86.6288 56.3733C84.0396 57.4704 81.0554 58.4359 77.6763 59.1819L76.1403 56.7244C79.8266 56.0222 82.6792 55.32 84.7417 54.574C85.6633 54.2668 86.4971 53.8718 87.2871 53.5208H79.0367V51.151H79.2122ZM88.6914 44.5244C89.0425 45.1826 89.3935 45.9287 89.7446 46.7186H101.155V52.7308H98.5216V49.2639H78.3345V52.7308H75.7014V46.7186H86.6288C86.3216 46.1042 85.9266 45.5776 85.5756 45.0071L88.6914 44.5244Z" fill="white"/>
</g>
<defs>
<clipPath id="clip0_302_2">
<rect width="157.81" height="79.58" fill="white"/>
</clipPath>
</defs>
</svg>
