<svg version="1.1" id="圖層_1" xmlns="http://www.w3.org/2000/svg" x="0" y="0" viewBox="0 0 450 57.1" xml:space="preserve"><style>.st0{fill:#4c4948}.st1{fill:#adaeae}.st2{fill:#fff}.st3{fill:#dadadb}</style><path class="st0" d="M342.9 55.2h-.2l-5.5-1.9-4.4 3.8 5-.6 4.9-1.1z"/><path class="st1" d="M342.7 55.4h.2v-.2z"/><path class="st2" d="M226.4 41.1h7.2V40h-8.1v10.3h8.2v-.9h-7.3v-3.9h7v-1h-7zm27.8-1.1h-1.7l-4.5 9-4.5-9h-1.7v10.3h1.1v-8.8l4.5 8.8h1.2l4.5-8.8v8.8h1.1zm11.4 1.1V40h-8v10.3h8.2v-.9h-7.1v-3.9h6.7v-1h-6.7v-3.4zm15.2-1.1h-1.5l-4.5 9-4.7-9h-1.5v10.3h1.2v-8.8l4.4 8.8h1l4.5-8.8v8.8h1.1zm9.2 0h-5.8v10.3h5.6c2.2 0 3.4-.9 3.4-2.8.2-1.3-.7-2.4-2-2.6 1-.3 1.7-1.2 1.7-2.3 0-1.6-1-2.6-2.9-2.6m-.1 1.1c.8-.3 1.7.2 2 1 0 .1.1.3.1.5-.2 1.3-.9 1.9-2.4 1.9h-4.3v-3.4h4.6zm.2 4.3c1-.1 2 .6 2.1 1.7v.4c0 1.3-.8 1.9-2.4 1.9h-4.5v-3.9h4.8v-.1zm14.3-4.3V40h-8v10.3h8.2v-.9h-7.3v-3.9h6.9v-1h-6.9v-3.4z"/><path class="st3" d="M332.6 40.6l-5.3.2 5.1 3 5.2-2.7z"/><path class="st0" d="M332.4 43.8l-.2 6 3-4.2 2.4-4.5z"/><path class="st1" d="M332.2 49.8l.2-6-5.1-3 2.3 4.7z"/><path class="st3" d="M346.1 36.3v5l.7 5.1 2.6-5.3z"/><path class="st0" d="M355.2 40.8l-5.8.3-2.6 5.3 4.3-2.6z"/><path class="st1" d="M349.4 41.1l5.8-.3-4.4-2.7-4.8-1.8zm-5.2-.7l-1.1-5.1-1.7-4.7-1.5 5.7z"/><path class="st0" d="M339.1 39.4l5.1 1-4.3-4.1-5.7 1.7z"/><path class="st3" d="M341.4 30.6l-4 3.4-3.2 4 5.7-1.7z"/><path class="st1" d="M351.1 52l.2-5-3.5 4.6 2 5.5z"/><path class="st3" d="M347.8 51.6l3.5-4.6-4.9 1.4-4.5 2.3z"/><path class="st0" d="M341.9 50.7l3.8 3.6 4.1 2.8-2-5.5z"/><path class="st1" d="M342.7 55.2l-2.8-4.1-3.8-3.6 1.1 5.8z"/><path class="st3" d="M332.8 57.1l4.4-3.8-1.1-5.8z"/><path class="st2" d="M89 40h-1.3L83 50.3h1.1l1.5-3H91l1.3 3h1.1L89 40zm1.5 6.4H86l2.2-5.2 2.3 5.2zm17.8-3.4h1c-.2-2.1-1.5-3.2-4.3-3.2s-4.1.9-4.1 3c0 1.3 1.3 2.2 3.8 2.8 2.6.2 3.8.9 3.9 1.9-.2 1.5-1.1 2.1-3.2 2.1-2.2 0-3.6-.8-3.6-2.6h-1.1c.2 2.4 1.7 3.7 4.7 3.7 2.8 0 4.3-1.1 4.3-3.2 0-1.5-1.3-2.4-3.8-2.8-2.6-.4-3.8-1.1-3.8-2.1 0-1.3.9-1.9 2.8-1.9 2.1.1 3.3.8 3.4 2.3m8.1-1.9h3.9V40h-9v1.1h3.9v9.2h1.2zm10.7-1.1h-1.3l-4.7 10.3h1.1l1.5-3h5.4l1.3 3h1.1L127.1 40zm1.5 6.4h-4.5l2.2-5.2 2.3 5.2zm27.7-6.4H155l-4.7 10.3h1.1l1.3-3h5.4l1.5 3h1.1L156.3 40zm1.5 6.4h-4.5l2.2-5.2 2.3 5.2zm6.4-6.4h-1.1v10.3h7.7v-.9h-6.6zm9.9 0H173v10.3h7.7v-.9h-6.6zm9 0h.9v10.3h-.9zm39 3.6c-.2-2.4-1.9-3.8-4.9-3.8-1.6 0-3.2.7-4.3 1.9-.9 1-1.3 2.2-1.3 3.6 0 3.6 1.9 5.3 5.6 5.4 3 0 4.7-1.5 5.1-4.1h-1.1c-.4 2.1-1.7 3-3.9 3-3 0-4.3-1.5-4.3-4.3 0-3 1.3-4.5 4.3-4.5 2.2 0 3.6.9 3.9 2.8h.9zM200.6 40h-1.4v10.3h1.2v-8.6l7.1 8.6h1.3V40h-1.1v8.8zm-8.3 0h-1.1l-4.7 10.3h1.1l1.3-3h5.4l1.3 3h1.3L192.3 40zm1.7 6.4h-4.5l2.2-5.2 2.3 5.2z"/><path d="M359.2 37.6V40h.2v-2.4h1.1v-.2h-2.4v.2zm4.5-.2l-1.1 2.2-1.2-2.2h-.3V40h.3v-2.2l1 2.2h.4l1.1-2.2V40h.2v-2.6z"/><path class="st2" d="M252.5 40l-4.5 9-4.5-9h-1.7v10.3h1.1v-8.8l4.5 8.8h1.2l4.5-8.8v8.8h1.1V40zm16.1 0v10.3h1.2v-8.8l4.4 8.8h1l4.5-8.8v8.8h1.1V40h-1.5l-4.5 9-4.7-9zm-3 0h-8v10.3h8.2v-.9h-7.1v-3.9h6.7v-1h-6.7v-3.4h6.9zm38.8 0h-8v10.3h8.2v-.9h-7.3v-3.9h6.9v-1h-6.9v-3.4h7.1zm11.8 8.3c0-1.9-.6-2.8-1.7-2.8 1.2-.3 2-1.4 1.9-2.6 0-1.9-1.1-2.8-3.2-2.8h-5.6v10.3h.9v-4.5h4.3c1.2-.2 2.3.7 2.4 1.9v.5c0 .7 0 1.4.2 2.1h1.1l-.3-2.1zm-7.6-3.4v-3.8h4.7c1.5-.2 2.1.4 2.1 1.7.1 1-.6 2-1.7 2.1h-5.1zm-17.5 0c1-.2 1.8-1.2 1.7-2.3 0-1.7-.9-2.6-2.8-2.6h-5.8v10.3h5.6c2.2 0 3.4-.9 3.4-2.8.1-1.3-.7-2.4-2.1-2.6m-5.9-3.8h4.7c.8-.3 1.7.2 2 1 0 .1.1.3.1.5-.2 1.3-.9 1.9-2.4 1.9h-4.3l-.1-3.4zm4.5 8.3h-4.5v-3.9h4.8c1-.1 1.9.6 2.1 1.7v.4c0 1.3-.8 1.8-2.4 1.8M109.3 43c-.2-2.1-1.5-3.2-4.3-3.2s-4.1.9-4.1 3c0 1.3 1.3 2.2 3.8 2.8 2.6.2 3.8.9 3.9 1.9-.2 1.5-1.1 2.1-3.2 2.1-2.2 0-3.6-.8-3.6-2.6h-1.1c.2 2.4 1.7 3.7 4.7 3.7 2.8 0 4.3-1.1 4.3-3.2 0-1.5-1.3-2.4-3.8-2.8-2.6-.4-3.8-1.1-3.8-2.1 0-1.3.9-1.9 2.8-1.9 2.1 0 3.2.8 3.4 2.3h1m2-1.9h3.9v9.2h1.2v-9.2h3.9V40h-9zm122.3 0V40h-8.1v10.3h8.2v-.9h-7.3v-3.9h7v-1h-7v-3.4zm-90.8 7.2c0-1.9-.8-2.8-1.7-2.8 1.2-.3 2-1.4 1.9-2.6 0-1.9-1.1-2.8-3.4-2.8h-5.4v10.3h.9v-4.5h4.1c1.7 0 2.4.8 2.4 2.4l.4 2.1h1.1c-.2-.7-.4-1.4-.3-2.1m-3.2-3.4h-4.5v-3.8h4.7c1.3-.2 2.1.4 2.1 1.7s-.8 2.1-2.3 2.1m23.5-4.9v10.3h7.6v-.9h-6.5V40zm9.9 0v10.3h7.7v-.9h-6.6V40zm10.1 0h.9v10.3h-.9zm39 3.6c-.2-2.4-1.9-3.8-4.9-3.8-1.6 0-3.2.7-4.3 1.9-.9 1-1.3 2.2-1.3 3.6 0 3.6 1.9 5.3 5.6 5.4 3 0 4.7-1.5 5.1-4.1h-1.1c-.4 2.1-1.7 3-3.9 3-3 0-4.3-1.5-4.3-4.3 0-3 1.3-4.5 4.3-4.5 2.2 0 3.6.9 3.9 2.8h.9M207.7 40v8.8l-7.1-8.8h-1.4v10.3h1.2v-8.6l7.1 8.6h1.3V40zm-15.4 0h-1.1l-4.7 10.3h1.1l1.3-3h5.4l1.3 3h1.3L192.3 40zm-2.8 6.4l2.2-5.2 2.3 5.2h-4.5zM156.3 40H155l-4.7 10.3h1.1l1.3-3h5.4l1.5 3h1.1L156.3 40zm-3 6.4l2.3-5.2 2.2 5.2h-4.5zM127.1 40h-1.3l-4.7 10.3h1.1l1.5-3h5.4l1.3 3h1.1L127.1 40zm-3 6.4l2.2-5.2 2.2 5.2h-4.4zM89 40h-1.3L83 50.3h1.1l1.5-3H91l1.3 3h1.1L89 40zm-3 6.4l2.2-5.2 2.2 5.2H86zM0 16.9h450v1.6H0z"/></svg>