<svg width="158" height="80" viewBox="0 0 158 80" fill="none" xmlns="http://www.w3.org/2000/svg">
<g clip-path="url(#clip0_302_2)">
<path d="M144.645 3.71287C141.397 3.71287 138.413 5.51152 136.921 8.33797L125.599 30.093L125.642 30.1359H125.599L103.305 72.9608H147.366L152.763 30.1359L156.099 3.67004H144.645V3.71287Z" fill="white"/>
<path fill-rule="evenodd" clip-rule="evenodd" d="M144.222 2.05128C140.49 2.20076 137.116 4.32159 135.4 7.57316L135.395 7.58173L124.073 29.3368C124.033 29.4136 123.999 29.4922 123.972 29.5722L101.779 72.2045C101.51 72.7222 101.535 73.3394 101.846 73.8343C102.158 74.3292 102.71 74.6309 103.305 74.6309H147.366C148.23 74.6309 148.959 74.0019 149.064 73.1647L154.462 30.3398L154.462 30.3397L157.797 3.87389C157.857 3.39902 157.705 2.92192 157.38 2.56356C157.056 2.2052 156.589 2 156.099 2H144.645C144.499 2 144.357 2.01779 144.222 2.05128ZM126.968 31.1919L106.094 71.2908H145.852L151.065 29.932L151.065 29.932L154.164 5.34009H145.031C144.907 5.36811 144.778 5.38292 144.645 5.38292C142.049 5.38292 139.648 6.82214 138.444 9.09898C138.444 9.10025 138.443 9.10151 138.442 9.10278L127.318 30.4782C127.296 30.5785 127.265 30.6779 127.224 30.7749C127.159 30.9279 127.072 31.0678 126.968 31.1919Z" fill="white"/>
<path d="M153.158 28.4657L156.274 3.71289H146.225C142.275 3.71289 138.676 5.85414 136.921 9.28014L126.959 28.4229H153.158V28.4657Z" fill="#EA5623"/>
<path d="M133.41 46.1096L125.599 30.9924L104.402 71.7617H146.312L133.41 46.1096Z" fill="#084A95"/>
<path d="M128.407 30.9496L135.692 45.039L148.024 69.5349L152.851 30.9496H128.407Z" fill="#3793D1"/>
<path d="M0.526619 12.8774H14.5698L14.0871 16.8601H9.25971L6.67051 35.3177H2.36979L4.95899 16.8601H0L0.526619 12.8774Z" fill="white"/>
<path d="M14.8331 18.7016H18.5633L18.2561 20.9713C19.3532 19.1726 20.7137 18.2733 22.2935 18.2733C22.6885 18.2733 23.0396 18.359 23.4784 18.5731L21.9425 22.256C21.6353 22.1276 21.372 22.0847 21.2403 22.0847C20.4065 22.0847 19.7043 22.5558 19.0461 23.4551C18.3878 24.3973 17.905 26.2388 17.5101 29.0224L16.6763 35.2748H12.4633L14.8331 18.7016Z" fill="white"/>
<path d="M38.5309 18.7016H42.7L40.3302 35.3177H36.205L36.4684 33.519C35.5468 34.3327 34.713 34.9323 33.923 35.232C33.1331 35.5746 32.2554 35.7031 31.2899 35.7031C29.0518 35.7031 27.2525 34.8894 25.8921 33.2621C24.5755 31.6347 23.9173 29.7504 23.9173 27.6092C23.9173 25.9818 24.3561 24.3973 25.1899 22.9413C26.0237 21.4424 27.1648 20.329 28.613 19.4725C30.0612 18.6588 31.5532 18.2305 33.1331 18.2305C34.1863 18.2305 35.1518 18.4447 36.0295 18.9157C36.9072 19.3868 37.6532 20.072 38.2237 20.9713L38.5309 18.7016ZM32.2554 32.1058C33.2647 32.1058 34.1863 31.8917 34.9324 31.4206C35.6784 30.9924 36.3367 30.2643 36.8633 29.3222C37.3899 28.38 37.6532 27.3951 37.6532 26.4101C37.6532 25.0825 37.2583 24.0547 36.4684 23.2411C35.6784 22.4274 34.6691 22.042 33.3964 22.042C31.9043 22.042 30.6317 22.5559 29.6223 23.6265C28.5691 24.6971 28.0863 26.0675 28.0863 27.7805C28.0863 29.0652 28.4813 30.1359 29.2712 30.9067C30.0173 31.7204 31.0266 32.1058 32.2554 32.1058Z" fill="white"/>
<path d="M44.982 18.7016H49.0633L51.7403 27.9518L57.182 18.7016H61.7461L51.872 35.3177H49.8533L44.982 18.7016Z" fill="white"/>
<path d="M75.5259 30.4356L79.2123 32.2771C78.3785 33.3477 77.2813 34.1614 75.9209 34.761C74.5605 35.3605 73.0684 35.7031 71.4008 35.7031C68.8115 35.7031 66.749 34.9751 65.2569 33.5619C63.7648 32.1486 63.0187 30.2643 63.0187 27.8661C63.0187 25.1682 63.9403 22.8985 65.8274 21.0142C67.7144 19.1299 69.9526 18.2305 72.5856 18.2305C74.1655 18.2305 75.6137 18.5731 76.8425 19.2583C78.0713 19.9435 79.0806 20.9285 79.7828 22.2133C80.4849 23.498 80.8799 24.9112 80.8799 26.4529C80.8799 26.924 80.836 27.4807 80.7044 28.1231H67.1439C67.1878 29.2794 67.5828 30.1787 68.3288 30.8639C69.0749 31.5491 70.0842 31.8917 71.3569 31.8917C72.9367 31.9773 74.2972 31.4634 75.5259 30.4356ZM76.5792 25.211C76.272 24.1832 75.7454 23.4124 74.9993 22.8985C74.2533 22.3846 73.3756 22.1276 72.3662 22.1276C71.3569 22.1276 70.4353 22.3846 69.6015 22.9413C68.7677 23.498 68.1533 24.226 67.7144 25.211H76.5792Z" fill="white"/>
<path d="M85.9705 12.2778H90.1396L86.936 35.2748H82.7669L85.9705 12.2778Z" fill="white"/>
<path d="M103.7 30.4356L107.386 32.2771C106.553 33.3477 105.455 34.1614 104.095 34.761C102.735 35.3605 101.242 35.7031 99.5749 35.7031C96.9857 35.7031 94.9231 34.9751 93.431 33.5619C91.9389 32.1486 91.1928 30.2643 91.1928 27.8661C91.1928 25.1682 92.1144 22.8985 94.0015 21.0142C95.8885 19.1299 98.1267 18.2305 100.76 18.2305C102.34 18.2305 103.788 18.5731 105.017 19.2583C106.245 19.9435 107.255 20.9285 107.957 22.2133C108.659 23.498 109.054 24.9112 109.054 26.4529C109.054 26.924 109.01 27.4807 108.878 28.1231H95.318C95.3619 29.2794 95.7569 30.1787 96.5029 30.8639C97.249 31.5491 98.2583 31.8917 99.531 31.8917C101.067 31.9773 102.471 31.4634 103.7 30.4356ZM104.753 25.211C104.446 24.1832 103.919 23.4124 103.173 22.8985C102.427 22.3846 101.55 22.1276 100.54 22.1276C99.531 22.1276 98.6094 22.3846 97.7756 22.9413C96.9418 23.498 96.3274 24.226 95.8885 25.211H104.753Z" fill="white"/>
<path d="M112.784 18.7016H116.514L116.207 20.9713C117.304 19.1726 118.665 18.2733 120.245 18.2733C120.64 18.2733 120.991 18.359 121.43 18.5731L119.894 22.256C119.586 22.1276 119.323 22.0847 119.191 22.0847C118.358 22.0847 117.655 22.5558 116.997 23.4551C116.339 24.3973 115.856 26.2388 115.505 29.0224L114.671 35.2748H110.458L112.784 18.7016Z" fill="white"/>
<path d="M6.45108 43.3688C7.5482 44.5679 8.38201 45.5528 8.9964 46.4093L7.37266 47.5228H12.595V50.0066H7.02158C7.02158 51.4199 6.9777 52.7474 6.93381 53.9894H12.1561C12.1561 61.1411 12.0683 65.3808 11.8928 66.7084C11.7612 67.779 11.5417 68.4214 11.1906 68.7212C10.7518 69.1494 10.0058 69.3635 8.86475 69.3635C8.25036 69.3635 7.5482 69.3207 6.71439 69.235L6.23165 66.5371C7.10935 66.6656 7.98705 66.7512 8.86475 66.7512C9.3036 66.7512 9.52302 66.3658 9.56691 65.6378C9.65468 64.6956 9.69856 61.6979 9.69856 56.6017H6.75827C6.62662 58.1434 6.45108 59.5138 6.27554 60.7129C5.7928 63.7106 4.87122 66.7512 3.55467 69.8346L1.36043 67.9931C2.54532 65.5093 3.37913 62.8541 3.81798 59.9849C4.21295 57.758 4.43237 54.4604 4.43237 50.0495H1.79928V47.5656H6.40719C5.88057 46.6663 5.2223 45.6813 4.43237 44.6107L6.45108 43.3688ZM16.2813 43.4973L18.9144 44.4822C18.6072 45.3387 18.3 46.0667 18.0367 46.7091H27.9108V49.0645H16.9835C16.8518 49.2786 16.764 49.4927 16.6763 49.664C16.0619 50.8631 14.9647 52.2764 13.4288 53.8609L11.1906 51.9338C12.5072 50.649 13.5604 49.3643 14.3504 48.1223C15.0964 46.8376 15.7547 45.2959 16.2813 43.4973ZM24.7072 50.1351L26.5065 52.5333C24.9705 53.0044 23.3907 53.4326 21.7669 53.8181C22.0741 55.1456 22.3813 56.3447 22.6885 57.501C24.2245 56.8158 25.5849 55.9165 26.8137 54.7602L28.4813 56.6017C26.8137 58.1006 25.1899 59.214 23.5662 60.0277C23.8295 60.6701 24.0928 61.2696 24.3561 61.7835C25.4094 64.0104 26.8576 65.8947 28.7446 67.3936L26.9892 69.9203C24.8389 67.9931 23.259 65.8947 22.2058 63.5822C20.977 61.0127 20.0115 57.9293 19.2216 54.3748C18.5194 54.5033 17.8173 54.6317 17.159 54.7602V65.8091C18.7827 65.3808 20.3187 64.9097 21.723 64.4387V67.1795C19.2655 68.0788 16.5007 68.8496 13.341 69.5777L12.5072 66.8797C13.2094 66.7084 13.8676 66.5799 14.5259 66.4514V52.8331C18.2122 52.1907 21.6353 51.2914 24.7072 50.1351Z" fill="white"/>
<path d="M38.4432 50.4777H45.0259V52.4048C44.236 53.9465 43.1827 55.6167 41.9101 57.3725H45.0698V58.9999C44.587 61.2696 44.1482 62.9398 43.6216 64.0104C43.6216 64.0532 43.5777 64.0961 43.5777 64.1389C44.7626 65.2095 45.7281 65.8519 46.4741 66.066C47.1324 66.3658 48.0978 66.5799 49.3705 66.7084C50.8626 66.8797 53.759 66.9653 58.1036 67.0082C61.2633 67.0082 63.6331 66.9225 65.213 66.794L64.7741 69.5348C56.436 69.5348 51.3014 69.4492 49.4583 69.235C47.7468 69.0637 46.4302 68.764 45.4647 68.3357C44.5871 68.036 43.6216 67.3508 42.5683 66.2801C41.9101 67.4792 41.1201 68.6783 40.1108 69.9631L38.2237 68.036C39.5403 66.4943 40.4619 65.1667 40.9446 64.0104C41.4273 63.2824 41.9101 61.8263 42.4367 59.6423H38.7942V57.6295C39.8475 56.4304 40.9446 54.803 42.0856 52.7903H38.4432V50.4777ZM41.0763 44.054C42.3928 45.3387 43.5338 46.5806 44.4115 47.8654L42.6561 49.5784C41.9101 48.3793 40.8568 47.0089 39.4525 45.5957L41.0763 44.054ZM50.2482 43.6257C50.6432 44.6107 51.0381 45.7241 51.4331 46.9232H54.6806V48.8504C55.295 48.2508 55.8216 47.6084 56.2165 47.0089C56.8748 45.9811 57.4453 44.782 57.9281 43.3688L60.3417 44.2681C59.9468 45.2102 59.5957 46.0667 59.2885 46.7519H65.0813V49.2358H57.8403C57.2698 50.0066 56.4799 50.906 55.4705 51.8053L53.4518 50.0495C53.759 49.7925 54.0662 49.5356 54.3295 49.2786H49.9849V49.3214C49.9849 50.2208 49.9849 51.0773 49.941 51.8481H54.4173C54.2417 58.5288 54.0662 62.1261 53.8468 62.6828C53.6712 63.4965 53.4079 64.0961 53.013 64.4387C52.7058 64.8669 52.1791 65.1239 51.3453 65.1667C50.4676 65.1667 49.7216 65.1239 49.0633 65.0382L48.5806 62.5972C49.941 62.7257 50.7309 62.7685 50.9504 62.7685C51.2576 62.7685 51.4331 62.5544 51.477 62.0833C51.6525 61.7835 51.7842 59.1284 51.8719 54.2035H49.8094C49.7216 55.6167 49.546 56.9015 49.3266 58.0149C48.9317 60.2846 48.1417 62.5972 46.9568 64.9526L44.7626 63.1111C45.7281 61.2696 46.4302 59.2997 46.8691 57.1584C47.2201 55.4454 47.3957 52.8331 47.3957 49.3214V49.2786H45.4209V46.9232H48.8C48.405 45.8526 47.9662 44.9105 47.4835 44.0111L50.2482 43.6257ZM56.1727 51.3342H64.2914V53.1757C63.4576 54.2891 62.4482 55.4026 61.2633 56.516V57.1156H65.3007V59.471H61.2633V63.1967C61.2633 63.8819 61.0878 64.4387 60.7806 64.8669C60.2978 65.338 59.7712 65.5521 59.1568 65.5521H56.436L55.7338 62.9826C56.6115 63.1111 57.3576 63.1967 57.9719 63.1967C58.4986 63.1967 58.7619 62.9398 58.7619 62.4687V59.471H55.4266V57.1156H58.7619V56.2163C59.5518 55.6167 60.3856 54.7174 61.2194 53.6468H56.2165V51.3342H56.1727Z" fill="white"/>
<path d="M79.2122 49.9638H97.6V52.3192H91.4561C90.7101 52.9187 89.9202 53.4755 89.0863 53.9894C90.1396 55.2313 90.8856 56.4732 91.3245 57.758C93.4748 56.8158 95.5374 55.4454 97.4684 53.6039L99.5748 55.6167C98.3461 56.6873 97.0734 57.6295 95.6691 58.4003C96.3274 59.8992 97.1173 61.2696 98.0389 62.5544C98.9605 63.7535 100.233 65.0382 101.857 66.4514L99.9259 68.8068C98.0828 67.1366 96.5907 65.4236 95.4935 63.6678C94.7036 62.4687 93.9576 61.0983 93.3432 59.5566C92.9043 59.7707 92.5094 59.942 92.0266 60.0705C92.2899 61.2696 92.4216 62.5115 92.4216 63.7106C92.4216 65.8947 92.0705 67.4792 91.3684 68.4214C90.7101 69.4064 88.6036 69.9203 85.0928 69.9203L84.1274 67.1366C84.2151 67.2223 84.7417 67.2651 85.7511 67.2651C87.331 67.2651 88.3403 67.0938 88.7353 66.7084C89.2619 66.1517 89.5252 65.1667 89.5252 63.7106C89.5252 63.2824 89.4813 62.897 89.4374 62.4687C87.7698 63.7535 86.2777 64.6956 84.9173 65.338C82.7669 66.4514 80.0461 67.5221 76.7986 68.5499L75.3065 66.066C78.554 65.2095 81.3187 64.2245 83.7324 63.0683C85.7072 62.1261 87.4187 60.9698 88.9108 59.6851C88.8669 59.471 88.7792 59.2568 88.7353 59.0427C88.6475 58.7858 88.5597 58.5288 88.472 58.2719C86.8482 59.3853 85.4 60.2418 84.1274 60.7557C82.2403 61.6122 79.8266 62.4687 76.9302 63.2396L75.482 60.8414C78.3345 60.199 80.7921 59.4281 82.8986 58.5288C84.5662 57.8436 86.0144 57.0299 87.2871 56.0878C87.0676 55.7452 86.8482 55.4026 86.6288 55.06C84.0396 56.1306 81.0554 57.0728 77.6763 57.8008L76.1403 55.4026C79.8266 54.7174 82.6792 54.0322 84.7417 53.3042C85.6633 53.0044 86.4971 52.619 87.2871 52.2764H79.0367V49.9638H79.2122ZM88.6914 43.4973C89.0425 44.1396 89.3935 44.8677 89.7446 45.6385H101.155V51.5055H98.5216V48.1223H78.3345V51.5055H75.7014V45.6385H86.6288C86.3216 45.039 85.9266 44.5251 85.5756 43.9683L88.6914 43.4973Z" fill="white"/>
</g>
<defs>
<clipPath id="clip0_302_2">
<rect width="157.81" height="79.58" fill="white"/>
</clipPath>
</defs>
</svg>
